<?xml version="1.0" encoding="utf-8"?>
<!-- Generator: Adobe Illustrator 19.2.1, SVG Export Plug-In . SVG Version: 6.00 Build 0)  -->
<svg version="1.1" xmlns="http://www.w3.org/2000/svg" xmlns:xlink="http://www.w3.org/1999/xlink" x="0px" y="0px"
	 viewBox="0 0 350 302.5" style="enable-background:new 0 0 350 302.5;" xml:space="preserve">
<style type="text/css">
	.st0{display:none;}
	.st1{display:inline;}
	.st2{fill:#FFF4E3;}
	.st3{display:inline;fill:none;stroke:#000000;stroke-width:0.3716;stroke-miterlimit:10;}
	.st4{display:inline;fill:#E6E6E6;stroke:#E6E6E6;stroke-width:0.3716;stroke-miterlimit:10;}
	.st5{fill:#70B7BA;stroke:#FFFFFF;stroke-width:1.4439;stroke-miterlimit:10;}
	.st6{fill:#70B7BA;stroke:#FFFFFF;stroke-width:0.6215;stroke-miterlimit:10;}
	.st7{fill:#3D4C53;stroke:#3D4C53;stroke-width:0.7549;stroke-miterlimit:10;}
	.st8{display:inline;fill:#3D4C53;stroke:#E7E1D4;stroke-width:1.2431;stroke-miterlimit:10;}
	.st9{display:inline;fill:none;}
	.st10{display:inline;fill:#3D4C53;stroke:#E7E1D4;stroke-width:0.6215;stroke-miterlimit:10;}
	.st11{display:inline;fill:#3D4C53;stroke:#E7E1D4;stroke-miterlimit:10;}
	.st12{display:inline;fill:#FFFFFF;}
	.st13{display:inline;fill:#3D4C53;stroke:#E7E1D4;stroke-linecap:round;stroke-linejoin:round;stroke-miterlimit:10;}
	.st14{fill:#FFFFFF;}
	.st15{fill:#F1433F;}
	.st16{fill:#E7E1D4;stroke:#3D4C53;stroke-width:1.2431;stroke-miterlimit:10;}
	.st17{fill:none;stroke:#000000;stroke-width:0.3108;stroke-linejoin:round;}
	.st18{fill:#E7E1D4;stroke:#FFFFFF;stroke-width:1.2431;stroke-miterlimit:10;}
	.st19{fill:#E7E1D4;}
	
		.st20{display:inline;fill:#F1433F;stroke:#3D4C53;stroke-width:1.2431;stroke-linecap:round;stroke-linejoin:round;stroke-miterlimit:10;}
	.st21{fill:none;stroke:#FFFFFF;stroke-width:2;stroke-miterlimit:10;}
	.st22{fill:#70B7BA;stroke:#FFFFFF;stroke-width:2;stroke-miterlimit:10;}
	.st23{display:inline;fill:#70B7BA;stroke:#FFFFFF;stroke-width:2.1371;stroke-miterlimit:10;}
	.st24{display:inline;fill:#70B7BA;stroke:#FFFFFF;stroke-width:2.0143;stroke-miterlimit:10;}
	.st25{fill:#70B7BA;}
	.st26{fill:#70B7BA;stroke:#FFFFFF;stroke-miterlimit:10;}
	.st27{fill:#F1433F;stroke:#E7E1D4;stroke-width:1.3472;stroke-linecap:round;stroke-linejoin:round;stroke-miterlimit:10;}
	.st28{fill:#E7E1D4;stroke:#3D4C53;stroke-linecap:round;stroke-linejoin:round;stroke-miterlimit:10;}
	.st29{fill:#3D4C53;}
	.st30{font-family:'Arvo';}
	.st31{font-size:12.8368px;}
	.st32{fill:#E7E1D4;stroke:#FFFFFF;stroke-width:2.2212;stroke-linecap:round;stroke-linejoin:round;stroke-miterlimit:10;}
	.st33{fill:#F1433F;stroke:#E7E1D4;stroke-width:0.655;stroke-linecap:round;stroke-linejoin:round;stroke-miterlimit:10;}
	.st34{fill:none;stroke:#FFFFFF;stroke-linecap:round;stroke-linejoin:round;stroke-miterlimit:10;}
	.st35{fill:none;stroke:#000000;stroke-width:0.5553;stroke-linecap:round;stroke-linejoin:round;}
	.st36{fill:none;stroke:#FFFFFF;stroke-width:0.25;stroke-miterlimit:10;}
	.st37{fill:none;stroke:#FFFFFF;stroke-miterlimit:10;}
</style>
<g id="_x35_0" class="st0">
	<g id="Shape_1" class="st1">
		<path class="st2" d="M84.1,114.4c0.4-0.1,0.8,0,1.1,0.1c-0.3,1.3-0.3,2.7,0.5,3.8c0.8,1.1,2.4,1.5,3.4,0.7
			c0.6-0.1,0.5,1.1-0.1,1.3c-0.6,0.2-1.3,0-1.9,0.1c-0.3,0.1-0.6,0.2-0.9,0.3c-1.2,0.3-2.2-1.2-2.3-2.5S84.4,115.7,84.1,114.4z"/>
		<path class="st2" d="M84.1,108.7c1,0.3,1.8,1.4,1.8,2.5C84.8,111,83.9,109.8,84.1,108.7L84.1,108.7z"/>
		<path class="st2" d="M216.3,96.6c-1.5,1-1.5,3.2-1,5c0.5,1.8,1.2,3.6,0.6,5.3c-2.3,6.9-3.5,14.2-3.7,21.5
			c4.2-5.8,1.5-14.5,5.3-20.5c-0.5,9-2.3,17.9-5.2,26.4c-0.7,1.9-1.4,3.9-2.9,5.3c-1.5,1.4-3.9,2-5.6,0.9c0.4-4.8,1.6-9.5,3.5-13.9
			c-0.1,0.9,1.2,1.4,2,0.9c0.8-0.5,1.1-1.4,1.3-2.3c0.3-1.3,0.7-2.6,1-3.9c-1.2,1.6-2.4,3.2-3.6,4.8c3.2-5.1,1.6-12.1,4.8-17.1
			c1.2-1.8,2.9-4.3,1.3-5.7c-0.4,2.5-2.1,4.8-4.4,6c1.3-2.8,2.5-5.5,3.8-8.3c-0.8,0.3-1.7,0.6-2.5,0.9c1.6-9.5,3.2-18.9,4.8-28.4
			c0.1-0.8,0.3-1.6,0.7-2.3c0.6-0.9,1.6-1.6,1.8-2.6c0.2-1.1-1.5-2.1-1.8-1.1c2.3-2.2,5.8-4.5,8.2-2.5c-1.3,0.2-2.5,0.7-3.6,1.5
			c-3.2,2.4-4,6.7-4.6,10.7c-1,6.3-2,12.6-3,18.9c2-1.1,3.3-3.4,3.2-5.6c1,0.3,2.2-0.7,2-1.8c0.7,0.6,1,1.5,0.9,2.4
			c2.2-1.5,3.8-3.8,4.3-6.4c1.6,2.6-0.1,6.5-3,7.1c-1.6,0.3-2.9,1.7-3.1,3.3c0,0.8,1,1.5,1.7,1.2c0.6-1,1.2-2.1,1.8-3.1
			c-0.1,3.2-1.5,6.2-3.8,8.4c-1-0.4-0.4-1.9,0.1-2.9S217.1,95.9,216.3,96.6 M206.1,137.1c1-1.7,1.9-3.5,2.9-5.2
			c0.3-0.6,0.6-1.2,0.3-1.8C206.7,131.1,205.2,134.4,206.1,137.1 M208.7,139.3c1.1-1.1,1.8-2.7,1.6-4.3c0-0.2-0.1-0.5-0.3-0.5
			C208.7,135.6,208.2,137.6,208.7,139.3 M205,138.9c0,0.6,1.1,0.7,1.4,0.1c0.3-0.6-0.1-1.2-0.5-1.7c-0.7,0.1-1.1,1-0.8,1.6
			 M213.4,98c-0.2,0.6,0.3,1.2,0.9,1.2c0.2-0.5,0.3-1.1,0.2-1.6C214.2,97.2,213.4,97.5,213.4,98 M211.9,115.8
			c-0.2-0.2-0.5,0.2-0.3,0.4C211.8,116.3,212.1,115.9,211.9,115.8L211.9,115.8z"/>
		<path class="st2" d="M169.8,83.1c0.4,1-0.8,2-1.9,2.2c-1.1,0.2-2.4,0.4-2.9,1.4c-0.4,0.8,0,1.7-0.1,2.5c-0.1,0.8-1.1,1.7-1.7,1.1
			c0.3-1,0.6-2.1,0.3-3.2c-0.2-1-1.2-2-2.2-1.9c-0.5,0-1.2,0.1-1.1-0.4c-0.1-0.7,0.7-1.1,1.4-1.1c0.7,0,1.5,0,1.8-0.5
			c0.2-0.2,0.2-0.6,0.2-0.9c0.3-4.1,0.6-8.1,0.9-12.2c0.1-0.9,0.1-1.9-0.6-2.5c-2.5,1.7-4.2,4.3-4.7,7.2c-0.2,0.9-1.5,1-2.2,0.4
			c-0.6-0.6-0.7-1.6-0.8-2.5c-0.1-1.7-0.2-3.4-0.3-5.1c-1.9,0.3-3.1,2.3-3.7,4.2c-0.6,1.9-0.8,4-2.1,5.5c-1.4-0.6-1.3-2.6-1-4.1
			c0.5-2.2,1.1-4.6,2.8-6.1c1.7-1.5,4.8-1.7,5.9,0.3c0.4,0.7,1.4,0.7,2,0.3c0.6-0.4,1-1.1,1.4-1.8c0,0.6,1,0.5,1.4,0
			s0.8-1.1,1.4-1.1c0.5,0,0.8,0.6,1,1c0.8,1.9,1.1,3.9,1,6c0.5,0.4,1.3-0.1,1.5-0.7s0.1-1.3,0.1-1.9c0-1,0.5-2,1-2.9
			c0.7-1.5,1.6-3.1,3.1-3.7c1.5-0.6,3.8,0.5,3.5,2.1c1.1,0.3,1.2-1.6,1.8-2.5c0.7-1.1,2.4-1,3.3-0.1s1.3,2.1,1.6,3.3
			c0.5,2,0.9,4.3-0.2,6c-1.2-0.2-1.1-1.9-1-3.1c0.2-2-0.7-4-2.1-5.3c-1.8,3-3.1,6.2-4,9.5c-1.1-0.2-1.6-1.7-1.3-2.8
			c0.3-1.1,0.9-2.1,1-3.3c0.1-1.2-1-2.5-2-2.1c-3.3,1.3-1.8,7.5-5.1,8.7c-0.4,0.1-0.8,0.2-1.1,0.5c-0.3,0.3-0.4,0.8-0.4,1.2
			c-0.3,2.9-0.5,5.8-0.8,8.7C166.7,83.7,168.3,83.6,169.8,83.1z"/>
		<path class="st2" d="M224.4,194.5c0,0.5,0,1-0.4,1.3c-0.4,0.5-1.2,0.5-1.8,0.1c-0.6-0.3-0.9-0.9-1.3-1.4c-0.8-1.3-1.7-2.6-2.5-3.9
			c-0.4,2.3-0.6,4.7-0.7,7c-0.7-0.2-1.4,0.4-1.8,1c-0.4,0.6-0.7,1.3-1.3,1.8c-0.6,0.5-1.4,0.7-2.2,0.6c-2.2-0.2-4-2.1-4.6-4.2
			s-0.1-4.4,0.6-6.5c0.5-1.3,1.2-2.5,2.4-3.1s3,0.2,3,1.5c0,3,0.8,6,2.2,8.7c0-2.7,0.1-5.5,0.1-8.2c0-2.1,0.1-4.4,1.6-5.9
			c0.7,3.6,2.5,7,5,9.7c-0.4-3.7-0.8-7.4-1.3-11.1c-0.1-1,0-2.3,1-2.5C224,184.4,224.6,189.4,224.4,194.5 M212.3,192.8
			c0-1.1,0-2.2,0-3.3c-0.4-0.5-1.2,0.1-1.5,0.7c-1.2,2.1-2.3,4.8-0.8,6.8c0.7,0.9,2.1,1.4,3,0.7c0.9-0.6,0.7-2.5-0.4-2.6
			c-0.4-0.1-0.9,0.1-1.3,0.1c-0.4,0-0.9-0.4-0.7-0.8C211,193.7,211.6,193.1,212.3,192.8z"/>
		<path class="st2" d="M253.7,131.9c2.1-4.2,4.3-8.4,6.4-12.6c0.2-0.3,0.3-0.7,0.3-1c0-0.5-0.3-0.9-0.6-1.3
			c-4.1-5.3-7.4-11.1-10-17.2c2.2-0.2,4.2,1.3,5.3,3.1c1.2,1.8,1.7,4,2.4,6c0.7,2,1.5,3.9,2.6,5.7c1.5,2.5,3.3,5,3.8,7.9
			c-0.6,0.4-1.1-0.4-1.4-1c-0.3-0.6-1.2-1.1-1.5-0.5c-1.7,4.5-3.8,8.8-6.1,13c-0.4,0.7-0.9,1.4-1.6,1.7c-1.7,0.5-3.2,1.8-3.9,3.4
			c-0.3-1.4,0.5-2.8,1.6-3.9C251.8,134.1,253,133.2,253.7,131.9 M256.5,108.9c-0.7-2.9-1.7-6.2-4.4-7.6c0.9,2.7,2.1,5.3,3.6,7.7
			C255.9,109,256.2,108.9,256.5,108.9z"/>
		<path class="st2" d="M232.8,127.7c-0.3,0.8-0.6,1.6-0.4,2.4c0.2,0.8,1.2,1.4,1.9,0.9c1.1-0.8,0-3.5,1.4-3.7
			c0.8,0.6,0.4,1.8-0.1,2.7c-0.5,0.9-0.7,2.3,0.2,2.6c-1.2-0.3-2.9-0.5-3.4,0.6c-0.4,0.8,0.1,2-0.4,2.7c-0.6,0.8,0.3,2,1.3,2.1
			c1,0.1,1.9-0.5,2.7-1.1c0.8,0.9-0.4,2.2-1.5,2.4c-1.1,0.2-2.4-0.1-3.4,0.4c-0.9-1.3-0.7-3-0.4-4.6c1.1-6.5,1.6-13.2,1.3-19.8
			c0-0.8,0-1.8,0.6-2.3c0.2-0.2,0.5-0.3,0.7-0.5c1.6-1.2,1.2-4.5,3.2-5c0.1,2.1-0.6,4.2-1.9,5.9c-0.6,0.7-1.3,1.4-1.6,2.3
			c-0.4,0.9-0.2,2,0.6,2.5c1-0.9,1.5-2.2,1.4-3.5c0.4-0.8,1.8-0.3,2,0.6c0.2,0.9-0.4,1.7-0.8,2.5c-1.1,1.8-2,3.8-2.6,5.9
			c0.4,0.1,0.7,0.2,1.1,0.3C233.8,125.2,233.3,126.5,232.8,127.7z"/>
		<path class="st2" d="M140.3,78.8c-1.8,0-3.1-1.7-3.4-3.4c-0.3-1.7,0.2-3.5,0.7-5.2c0.3-1.1,0.7-2.2,1.4-3.1
			c1.8-2.1,5.7-1.4,6.7,1.1c0.8,2-0.1,4.3-1,6.3C143.8,76.5,142.4,78.8,140.3,78.8 M142.9,73.4c0.4-1,0.9-2,1-3
			c0.1-1.1-0.3-2.2-1.2-2.8c-2.2,2.1-3.4,5.2-3.2,8.3c0.7,0.4,1.6,0.1,2.2-0.5C142.3,74.9,142.6,74.2,142.9,73.4z"/>
		<path class="st2" d="M201.1,197.6c-0.2-0.9-1.2-1.3-2.1-1.4c-0.9-0.1-1.9-0.1-2.6-0.6c-0.9-0.6-1.3-1.8-1.2-2.9
			c0.2-2.1,1.6-4,3.6-4.6c0.9-0.3,2-0.3,2.6,0.4c0.6,0.7,0,2.2-1,1.9c-1.1-0.4-2.5,0-3,1.1s0.5,2.5,1.6,2.3c2.2-0.5,4.1,2.1,3.6,4.3
			c-0.4,2.2-2.3,3.7-4.3,4.7c-0.8,0.4-1.7,0.8-2.6,0.7c-0.9-0.1-1.8-0.7-2-1.6c-0.1-0.6-0.9-0.4-1.4-0.1c-0.5,0.3-1.2,0.6-1.5,0.1
			c1.4-1.3,3.5-1.5,5.4-1.7C198.1,199.9,200.2,199.3,201.1,197.6z"/>
		<path class="st2" d="M133,77.5c-1.2,0.6-2.5,1.3-3.8,0.9c-1.2-0.3-2.1-1.5-2.4-2.7c-0.3-1.2-0.1-2.5,0.3-3.8
			c0.5-1.9,1.3-3.7,2.3-5.5c0.5-0.9,1.1-1.8,2-2.3c0.9-0.6,2-0.7,2.9-0.2c1.5,1,1.2,3.1,0.7,4.8c-0.2,0.7-0.6,1.6-1.3,1.4
			c-0.8-0.2-0.7-1.4-0.5-2.2c0.2-0.8-0.3-2.1-1-1.7c-0.2,0.1-0.3,0.3-0.5,0.5c-0.8,1.5-1.5,3.1-2.1,4.7c-0.2,0.7-0.5,1.5-0.4,2.3
			c0.1,0.8,0.6,1.5,1.4,1.7c1.2,0.2,2.7-1,3.6-0.1C134.8,76.1,133.9,77.1,133,77.5z"/>
		<path class="st2" d="M186.7,200.2c0.4,0.8,1.6,0.1,2.2-0.5c1.4-1.5,3.1-2.8,5-3.6c0.8,0.8-0.2,2.2-1.2,2.9c-2.5,1.8-5,3.7-7.5,5.5
			c0-2.1,0.1-4.3,0.1-6.4c0-0.9,0-1.8,0.4-2.6c0.3-0.7,0.8-1.2,1.3-1.8c2-2.1,4.1-4.1,6.3-5.9c0.8,0.5,0.1,1.7-0.5,2.4
			c-1.5,1.5-3,2.9-4.4,4.4c-0.7,0.7-1.5,1.8-0.9,2.7c1.9-1.9,3.8-3.8,5.6-5.7c0.8,0.3,0.3,1.5-0.3,2.1
			C190.9,195.8,188.8,198,186.7,200.2z"/>
		<path class="st2" d="M155.7,90.1c-0.2,1.2-1.7,2-2.9,1.7c-1.2-0.4-2-1.6-2.2-2.8c-0.2-1.2,0.2-2.5,0.8-3.6
			c0.6-1.2,1.3-2.3,2.5-2.9c1.2-0.6,2.8-0.4,3.6,0.6c0.7,0.9,0.6,2.2,0.6,3.4c0,1.2,0.4,2.6,1.5,2.9c0.8,0.3,0.9,1.5,0.4,2.1
			c-0.6,0.6-1.5,0.7-2.3,0.3C156.8,91.4,156.2,90.7,155.7,90.1 M154.8,89.2c1.1-0.9,1.7-2.3,1.5-3.7c-0.1-0.7-0.4-1.4-1.1-1.5
			c-0.6-0.1-1.1,0.4-1.5,0.9c-0.6,0.7-1,1.6-1.3,2.5c-0.3,0.8-0.3,1.9,0.4,2.3C153.4,90,154.2,89.7,154.8,89.2z"/>
		<path class="st2" d="M187.3,63c0.9,2.2-0.7,5,0.3,7.2c0.2,0.4,0.5,0.8,0.9,0.8c0.5,0.1,0.9-0.3,1.2-0.7c1.8-2.1,2.6-5,2.2-7.7
			c-0.1-0.5,0.7-0.8,1.1-0.5c0.4,0.3,0.5,0.9,0.5,1.4c0.3,2.9,0.4,5.9,0.6,8.9c-0.9-0.3-1.5-1.4-1.3-2.4c-0.3,0-0.7-0.1-1-0.1
			c0.4,1.7-1.4,3.3-3.1,3.1c-1.7-0.2-3-1.7-3.4-3.4c-0.4-1.7,0-3.4,0.6-5C186,63.9,186.5,63,187.3,63L187.3,63z"/>
		<path class="st2" d="M235.9,69.1c-0.6,1.7-1.1,3.5-1.3,5.3c-0.9,0.5-1.8,1.1-2.7,1.6c-0.3-1.3,0.4-2.6,0.9-3.8
			c2.4-5,4.2-10.3,5.2-15.8c0.2-1.1,0.6-2.4,1.7-2.6c0.3,1.6,0.5,3.1,0.8,4.7c-0.4,0.2-0.9,0.2-1.3,0.2
			C238.1,62.2,237,65.6,235.9,69.1z"/>
		<path class="st2" d="M240.4,65.9c2.2-3,3.1-6.9,2.3-10.6c1.1,0.1,1.4,1.5,1.3,2.6c0,4.8-0.1,9.6-0.1,14.4
			c-0.1,5.7-0.1,11.4-1.3,17c-1-1.1-0.4-2.8-0.1-4.2c0.5-2.2,0.4-4.5,0.2-6.7c-0.2-4.7-0.2-9.5,0.2-14.2
			C242.2,64.7,241.3,65.3,240.4,65.9z"/>
		<path class="st2" d="M240,100.7c1.3-3.2,1.7-6.7,1.2-10.1c0.3-0.4,1-0.2,1.2,0.2c0.3,0.4,0.3,0.9,0.3,1.4
			c-0.1,7.9-0.2,15.8-0.3,23.8c-0.8-1.6-1.2-3.4-1.2-5.2c-0.1-2.7,0.5-5.7-1.2-7.7C239.3,102.4,239.7,101.5,240,100.7 M240.9,102.6
			c0.4-0.1,0.5-0.6,0.2-0.9C240.6,101.7,240.4,102.7,240.9,102.6L240.9,102.6z"/>
		<path class="st2" d="M147.8,90c-0.9,0.7-1.9,1.5-3,1.8c-1.1,0.4-2.5,0.3-3.3-0.6c-0.8-0.7-1-1.9-1-3c-0.1-2.4,0.5-5.1,2.5-6.6
			c0.5-0.4,1-0.7,1.6-0.7c1.2-0.1,2.2,0.8,2.7,1.9c0.5,1.1,0.5,2.2,0.5,3.4c-0.4,0.5-1.2,0.1-1.4-0.5c-0.2-0.6-0.1-1.3-0.5-1.8
			c-0.6-1-2.3-0.8-3,0.1s-0.8,2.2-0.9,3.4c0,0.6,0,1.2,0.3,1.7C143.6,90.8,146.8,88.4,147.8,90z"/>
		<path class="st2" d="M223.6,100.6c0.1,1.7,1.8,3.1,3.5,3c0.2,3.1-0.1,6.1-0.8,9.1c-0.2,0.9-0.6,1.9-1.6,2.1
			c-0.8,0.2-1.5-0.4-1.9-1.1c-0.3-0.7-0.3-1.5-0.3-2.3c0-1.3,0-2.6,0-3.8c0-1.3,0.3-3,1.6-3.3C223.1,103.3,222.9,101.7,223.6,100.6
			 M223.5,106c0,2,0,4,0,5.9c0,0.3,0,0.7,0.2,1c0.2,0.4,0.8,0.6,1.2,0.4c0.3-1.7,0.6-3.3,0.9-5c0.2-0.9,0.3-1.9-0.3-2.7
			C225,104.9,223.5,105.1,223.5,106z"/>
		<path class="st2" d="M202.5,70.3c-0.6-0.7-0.8-1.6-1-2.5s-0.5-1.9-1.3-2.4c-0.8-0.5-2.1,0-2.1,0.9c0.2,2.5-0.4,5-1.7,7.1
			c-0.5-1.1-0.4-2.3-0.4-3.5c0.1-1.9,0.2-3.9,1.4-5.4c1.2-1.5,3.9-1.7,4.8-0.1C202.4,66.4,202.4,68.3,202.5,70.3z"/>
		<path class="st2" d="M206,200.6c-1.2,0-1.8-1.5-1.9-2.7c-0.3-3.1-0.3-6.2,0.2-9.2c0.3-0.3,0.9-0.1,1.1,0.3
			c0.2,0.4,0.3,0.8,0.3,1.3C205.8,193.7,205.9,197.2,206,200.6z"/>
		<path class="st2" d="M132,93.6c-1.1-3.4-1.2-7.2-0.3-10.6c0.2-0.6,0.7-1.3,1.2-1c0.3,0.2,0.3,0.6,0.3,0.9
			c-0.1,2.9-0.2,5.8-0.2,8.6C132.9,92.3,132.8,93.3,132,93.6z"/>
		<path class="st2" d="M231,107.7c1-1.3,1-3.3-0.1-4.5c1.1-0.4,1.7-1.7,2.2-2.8c0.2-0.3,0.6-0.1,0.8,0.1c0.1,0.3,0,0.6-0.1,0.9
			c-0.5,1.3-0.9,2.6-1.4,3.9c0.4-0.4,1.1,0,1.3,0.5c0.2,0.5,0,1.1-0.2,1.6c-0.5,1.5-1.1,3-1.6,4.6C230.4,111,230,108.9,231,107.7z"
			/>
		<path class="st2" d="M237.4,95.8c-1.1-1.7,0.4-3.9,1.7-5.4c0.3-0.4,0.7-0.8,1.2-0.8c0.5-0.1,1.1,0.5,0.8,0.9
			c-2.2,0.8-3.3,3.7-2.3,5.8c0.8,1.6-0.3,3.9-2.1,4.2C238.1,99.3,238.3,97.2,237.4,95.8z"/>
		<path class="st2" d="M113.1,100.8c-0.3-2.1,2.1-3.5,4-4.2c1-0.4,2-0.7,3-0.5c1.3,0.3,2.2,1.6,2,2.9c-0.4,0.4-0.9-0.2-1.2-0.6
			c-1-1.2-2.8-1.1-4.2-0.3C115.4,98.8,114.4,100,113.1,100.8z"/>
		<path class="st2" d="M240,129.6c0.5-3.4,0.9-6.9,1.4-10.3c0.1-0.6,0.3-1.3,0.9-1.3c0.1,4.2-0.4,8.5-1.6,12.6
			C240.3,130.9,239.9,130.1,240,129.6z"/>
		<path class="st2" d="M239.2,85c-1.2,2.3-2.3,4.7-4,6.7c1-3.5,2.5-6.9,4.4-10c0.4-0.6,1.1-1.3,1.7-0.9c-0.5,1-1,1.9-1.4,2.9
			C239.6,84.2,239.4,84.6,239.2,85z"/>
		<path class="st2" d="M229.2,82.7c0.5,0.4,1.3-0.1,1.6-0.7c0.3-0.6,0.2-1.3,0.3-2c0.1-0.8,0.5-1.6,1-2.3c1,1.7,0.4,3.9-0.8,5.4
			c-1.2,1.5-2.8,2.6-4.1,4.1C227.6,85.7,228.3,84.1,229.2,82.7z"/>
		<path class="st2" d="M173.1,82c-0.4,1.9-0.8,3.7-1.1,5.6c-0.2,0.9-1,2-1.6,1.4c0.3-2.9,0.9-5.8,1.9-8.6
			C172.9,80,173.2,81.3,173.1,82z"/>
		<path class="st2" d="M237.8,143.5c-1.4-1.7-4.2-1.9-5.8-0.5c-0.5,0.4-0.9,0.9-1.5,1.2c-0.2-0.8-0.3-1.6-0.5-2.3
			c3-0.8,6.1-0.8,9.1-0.2C238.8,142.3,238.3,143,237.8,143.5z"/>
		<path class="st2" d="M230.3,89.1c0.8,0.1,0.9,1.2,0.7,2c-0.6,2-2,3.6-3.9,4.4c0.6-1.7,1.2-3.4,1.8-5
			C229.1,89.8,229.6,89,230.3,89.1z"/>
		<path class="st2" d="M235.8,122.7c1-2.4,2.1-4.7,3.1-7.1c0.3-0.7,0.6-1.3,1.2-1.7C240.4,117.4,238.7,120.9,235.8,122.7z"/>
		<path class="st2" d="M186.2,263.1c0.4-0.1,0.8-0.4,1-0.7c-0.2-0.9-1.2-1.5-2-1.3c-0.7,0.2-0.7-1-0.3-1.7c0.3-0.6,0.7-1.1,1-1.7
			c0.1,1.1,1.1,2,1.9,2.8c0.8,0.9,1.3,2.2,0.6,3.1c-0.4,0.3-1,0.4-1.5,0.3C186.6,263.7,186.4,263.4,186.2,263.1z"/>
		<path class="st2" d="M223.1,68.9c1.6-0.4,2-2.8,3.5-3.3c0.9-0.3,2,0.3,2.3,1.2c0.3,0.9-0.4,2-1.3,2.3c-0.7-0.1,0-1.2-0.1-1.8
			c-0.2-0.6-1.1-0.6-1.6-0.2c-0.4,0.4-0.6,1.1-0.8,1.7c-0.3,0.6-0.8,1.1-1.4,1C223.5,69.5,223.3,69.2,223.1,68.9z"/>
		<path class="st2" d="M93.8,122.3c-0.7-0.3-1.7-0.1-2.2,0.5c-0.7,0-1.2-0.7-1-1.3c0.2-0.6,1.1-0.9,1.6-0.4c0.8-0.6,0.2-1.9-0.5-2.6
			c-0.7-0.7-1.6-1.5-1.4-2.5c2,1.2,3.3,3.3,3.6,5.6C94.2,121.5,94.2,122.3,93.8,122.3z"/>
		<path class="st2" d="M238.7,108c-0.6-0.3-1.3-0.6-1.9-0.9c0.7-0.3,1.5-0.6,2.3-0.4c0.8,0.2,1.3,1.2,0.8,1.8c-1,1.3-1.6,3-1.5,4.6
			c-0.1,0.4-0.7,0.3-0.9,0s-0.2-0.7-0.2-1.1C237.4,110.6,237.9,109.2,238.7,108z"/>
		<path class="st2" d="M218.8,77c0.1-0.8,0.1-1.7,0.2-2.5c0.1-1.3,0.4-2.9,1.6-3.4c0.3-0.1,0.7-0.1,0.9,0.2
			c-0.8,1.1-1.5,2.7-0.5,3.7c0.4,0.4,0.2,1.2-0.3,1.6C220.1,76.9,219.5,76.9,218.8,77z"/>
		<path class="st2" d="M237,128.6c0.3-1.7,0.6-3.4,1-5.1c0.1-0.7,0.5-1.6,1.2-1.5C239.9,124.4,239,127.2,237,128.6z"/>
		<path class="st2" d="M228.3,102.5c-0.4-1.2-0.7-2.5-0.8-3.8c0.4-0.4,1.2,0,1.4,0.5c0.2,0.5,0.1,1.1,0,1.7c0.6,0.3,1.5,0,1.8-0.6
			c0.1,0.9,0.3,1.8,0.4,2.6C230.2,102.6,229.3,102.5,228.3,102.5z"/>
		<path class="st2" d="M109.9,147.2c-0.2-1,0.2-2.1,0.9-2.7c0.6,1.1,1.1,2.5,0.5,3.6c-0.6,1.1-2.5,1.4-3,0.2
			c0.6-0.2,1.2-0.5,1.8-0.7L109.9,147.2z"/>
		<path class="st2" d="M243.8,53.8c-0.8-2.2-1-4.6-0.6-6.9c0.1-0.3,0.2-0.7,0.5-0.8C244.4,48.6,244.4,51.3,243.8,53.8z"/>
		<path class="st2" d="M222.5,81.7c-0.4-0.5-1-0.7-1.6-0.6c-0.5-0.6-0.7-1.4-0.4-2.2c1,0.6,2,1.2,3.1,1.6c0,0.6,0,1.2,0,1.8
			C223.1,82.7,222.4,82.2,222.5,81.7L222.5,81.7z"/>
		<path class="st2" d="M292.1,180.8c1,0,2,0.2,2.8,0.7c-1.9,0.6-4,0.2-5.6-1C289.9,179.7,291.2,180.2,292.1,180.8L292.1,180.8z"/>
		<path class="st2" d="M241.6,71.7c-1.2,1.4-1.6,3.5-1,5.2c-1-0.6-1.5-1.8-1.3-2.9C239.5,72.9,240.5,71.9,241.6,71.7z"/>
		<path class="st2" d="M111.6,131.9c0.4,0,0.6,0.5,0.5,0.8c-0.1,0.4-0.5,0.6-0.8,0.8c-1.1,0.6-2.2,1.3-3.3,1.9
			c0.9-1.3,1.9-2.4,3.2-3.3C111.3,132,111.5,131.9,111.6,131.9z"/>
		<path class="st2" d="M230.7,100.3c0.1-1.8,0.5-3.5,1.2-5.1C232.7,96.9,232.1,99.1,230.7,100.3z"/>
		<path class="st2" d="M243.7,44.7c-0.5-1.3-0.5-2.8,0-4.1C244.8,41.6,244.8,43.6,243.7,44.7L243.7,44.7z"/>
		<path class="st2" d="M227,60.9c1-1.2,2.5-2,4-2.2C230.3,60.1,228.6,61,227,60.9z"/>
		<path class="st2" d="M192.2,261.4c-1.2-0.2-2.3-0.8-3.3-1.5c1-0.9,3-0.1,3.1,1.3L192.2,261.4z"/>
		<path class="st2" d="M106.8,136.6c-0.9,1.1-2.5,1.6-3.9,1.2C103.9,136.8,105.4,136.3,106.8,136.6z"/>
		<path class="st2" d="M238.9,133.5c-0.3,1-0.5,2.1-0.8,3.1c-0.5-1.6-0.2-3.4,0.6-4.8C239.3,132,239.1,132.9,238.9,133.5
			L238.9,133.5z"/>
		<path class="st2" d="M230.4,72.3c0,0.4-0.1,0.8-0.1,1.2c-1.2-0.5-1.7-2.1-1.1-3.3c0.6,0.5,1,1.3,1.1,2.1L230.4,72.3z"/>
		<path class="st2" d="M181.6,253.4c0.6,0.4,1.1,0.9,1.4,1.6c0.3,0.6,0.2,1.5-0.3,1.9c-0.5-1.1-0.9-2.2-1.2-3.4L181.6,253.4z"/>
		<path class="st2" d="M224.6,91.8c0.2,1,0.1,2.1-0.3,3c-1-0.8-0.9-2.6,0.1-3.3L224.6,91.8z"/>
		<path class="st2" d="M96.9,123c-0.5,0.9-2.2,0.6-2.4-0.4c0.8-0.2,1.7-0.3,2.5-0.5c0.2,0.2,0.1,0.7-0.2,0.8L96.9,123z"/>
		<path class="st2" d="M100,128.6c0.7,0,1.3,0.3,1.8,0.8c-0.2,0.3-0.3,0.6-0.5,0.9c-0.9,0.2-1.8-0.8-1.4-1.7L100,128.6z"/>
		<path class="st2" d="M183.2,214.8c-0.3,0.7-0.7,1.4-1,2.1c-0.5-0.2-0.8-0.8-0.7-1.4c0.1-0.5,0.7-0.9,1.3-0.8L183.2,214.8z"/>
		<path class="st2" d="M243.3,154.6c0.3-0.2,0.5-0.5,0.8-0.7c-0.1,1.2-1.1,2.3-2.4,2.5c0-0.8,0.8-1.6,1.6-1.7L243.3,154.6z"/>
		<path class="st2" d="M103.3,124.8c0.3,0.1-0.2,0.4-0.4,0.3c-0.8-0.5-1.2-1.5-0.9-2.4C102.8,123,103.4,123.9,103.3,124.8
			L103.3,124.8z"/>
		<path class="st2" d="M218.4,103.1c0.3,0.7,0.1,1.5-0.5,2c-0.4-0.5-0.8-1.1-0.6-1.7c0.1-0.6,1.1-0.9,1.4-0.4L218.4,103.1z"/>
		<path class="st2" d="M184.5,255.3c-0.5-0.7-0.7-1.6-0.4-2.4c0.1-0.3,0.6-0.3,0.8,0c0,0.8,0,1.7,0.1,2.5L184.5,255.3z"/>
		<path class="st2" d="M185.2,240.3c-0.1-0.4,0.1-1,0.5-0.9c0.7,0.6,0.7,1.8,0,2.5C185.2,241.5,185,240.8,185.2,240.3L185.2,240.3z"
			/>
		<path class="st2" d="M166.3,204.4c-0.3,0.3-0.8,0.3-1.1,0c0.7-0.7,1.6-1.2,2.5-1.6c0,0.7-0.6,1.4-1.4,1.5L166.3,204.4z"/>
		<path class="st2" d="M88.8,112.5c0.1,0.3,0,0.7-0.2,0.9c-0.5-0.1-1.1-0.1-1.6-0.2c0.4-0.7,1.4-1.5,1.9-0.8L88.8,112.5z"/>
		<path class="st2" d="M238.8,79.1c0.1,0.8-0.6,1.5-1.3,1.6c-0.3-0.8,0.4-1.8,1.3-1.7L238.8,79.1z"/>
		<path class="st2" d="M224.8,76.8c0,0.7-0.4,1.5-1,1.9C223.3,77.9,223.9,76.7,224.8,76.8L224.8,76.8z"/>
		<path class="st2" d="M160.6,89.5c-0.1-0.7,0.5-1.4,1.2-1.5c0.2,0.3,0.2,0.6,0.2,0.9c-0.4,0.2-0.8,0.4-1.3,0.5L160.6,89.5z"/>
		<path class="st2" d="M222.3,73.6c0.2-0.1,0.4-0.3,0.6-0.4c0.2,0.3,0.4,0.6,0.6,0.9c-0.3,0.3-0.6,0.6-0.9,0.9
			c-0.2-0.4-0.3-0.8-0.2-1.3L222.3,73.6z"/>
		<path class="st2" d="M178.6,220.7c0.2,0.3-0.1,0.9-0.5,0.9c-0.3-0.6-0.3-1.2,0-1.8C178.5,219.6,178.7,220.3,178.6,220.7
			L178.6,220.7z"/>
		<path class="st2" d="M237.2,146c-0.3,0.8-0.9,1.4-1.7,1.7c0.1-0.8,0.7-1.6,1.5-1.8L237.2,146z"/>
		<path class="st2" d="M185.5,243.9c-0.2,0.5-0.9,0.7-1.4,0.4c-0.1-0.8,1.2-1.2,1.5-0.4L185.5,243.9z"/>
		<path class="st2" d="M105.1,124.8c0.2-0.5,0.4-1.1,0.5-1.6c0.7,0.5,0.3,1.9-0.6,2L105.1,124.8z"/>
		<path class="st2" d="M222.3,72.3c-0.3-0.7,0.3-1.6,1.1-1.6c-0.3,0.7-0.5,1.3-0.8,2L222.3,72.3z"/>
		<path class="st2" d="M183.3,229.2c-0.3-0.1-0.2-0.7,0.2-0.7c0.3-0.1,0.6,0.1,0.9,0.3c0.1,0.3,0,0.7-0.2,1
			C183.9,229.5,183.6,229.3,183.3,229.2L183.3,229.2z"/>
		<path class="st2" d="M233,88.2c0.1-0.4,0.7-0.6,1.1-0.4c-0.2,0.4-0.4,0.8-0.6,1.3C233.1,89.3,232.9,88.6,233,88.2L233,88.2z"/>
		<path class="st2" d="M227.2,63.6c-0.2-0.4,0.5-0.6,0.9-0.5c0.2,0.3,0.4,0.6,0.5,0.9C228.1,64.3,227.4,64.1,227.2,63.6L227.2,63.6z
			"/>
		<path class="st2" d="M226.1,71.1c0.4-0.2,0.8,0.2,0.8,0.6c0.1,0.4-0.1,0.8-0.3,1.1c-0.6,0-0.6-0.9-0.4-1.5L226.1,71.1z"/>
		<path class="st2" d="M229,96.4c0.3,0.1,0.2,0.6-0.2,0.7s-0.6-0.1-0.9-0.3c-0.1-0.6,1-0.9,1-0.3L229,96.4z"/>
		<path class="st2" d="M185.3,245.9c0.3-0.1,0.6,0,0.9,0.1c0.1,0.3,0,0.7-0.2,0.9C185.5,247,185,246.3,185.3,245.9L185.3,245.9z"/>
		<path class="st2" d="M176.1,218.5c0-0.7,0.9-1.2,1.4-0.8C177.3,218.3,176.7,218.7,176.1,218.5L176.1,218.5z"/>
		<path class="st2" d="M226.1,101.2c0.1,0.4-0.5,0.7-0.7,0.3c-0.2-0.5,0.1-1,0.6-1.2C226,100.6,226,100.9,226.1,101.2L226.1,101.2z"
			/>
		<path class="st2" d="M179.4,213.8c-0.1-0.4,0.1-1.1,0.5-0.8C180.4,213.3,179.8,214.2,179.4,213.8L179.4,213.8z"/>
		<path class="st2" d="M90.3,115.9c-0.5-0.3-0.7-1-0.6-1.5C90.3,114.4,90.4,115.3,90.3,115.9L90.3,115.9z"/>
		<path class="st2" d="M235.1,80.9c0.5,0,0.4,1.1-0.2,1C234.7,81.6,234.8,81.1,235.1,80.9L235.1,80.9z"/>
		<path class="st2" d="M237.9,138.7c-0.1-0.3,0.4-0.3,0.5-0.1c0.1,0.3-0.1,0.5-0.2,0.8C237.9,139.6,237.6,139,237.9,138.7
			L237.9,138.7z"/>
		<path class="st2" d="M224.1,97.8c0.2-0.2,0.5,0.1,0.5,0.4c0,0.3-0.3,0.5-0.5,0.6C223.8,98.5,223.8,98.1,224.1,97.8L224.1,97.8z"/>
		<path class="st2" d="M182.2,243.9c0.1,0.4-0.5,0.7-0.7,0.3C181.3,243.9,182,243.6,182.2,243.9L182.2,243.9z"/>
		<path class="st2" d="M180.1,223.6c-0.2-0.3,0.4-0.6,0.7-0.3C180.9,223.6,180.3,223.9,180.1,223.6L180.1,223.6z"/>
		<path class="st2" d="M186.6,230.9c0.3,0.1,0.5,0.6,0.2,0.8c-0.4-0.1-0.6-0.7-0.4-1L186.6,230.9z"/>
		<path class="st2" d="M107,100.6c0.2-0.4,0.9,0.1,0.7,0.5C107.4,101.5,106.7,100.9,107,100.6L107,100.6z"/>
		<path class="st2" d="M241.6,35.3c0.1,0.4-0.5,0.7-0.7,0.3C240.7,35.4,241.4,35.1,241.6,35.3L241.6,35.3z"/>
		<path class="st2" d="M229.5,164.4c0.3,0.2,0,0.8-0.3,0.7C228.8,164.9,229.1,164.3,229.5,164.4L229.5,164.4z"/>
		<path class="st2" d="M217.8,79.4c-0.2-0.3,0.3-0.7,0.5-0.4C218.5,79.3,218,79.7,217.8,79.4L217.8,79.4z"/>
		<path class="st2" d="M235.1,84.2c-0.2,0.2-0.4-0.4-0.1-0.5C235.2,83.5,235.4,84.1,235.1,84.2L235.1,84.2z"/>
		<path class="st2" d="M202.9,71.2c0.2-0.2,0.7,0.2,0.5,0.4C203.2,71.9,202.7,71.5,202.9,71.2L202.9,71.2z"/>
		<path class="st2" d="M184,225.6c0-0.3,0.7-0.1,0.4,0.2c-0.1,0.3-0.6,0.1-0.5-0.2L184,225.6z"/>
		<path class="st2" d="M219.9,82.4c-0.2-0.1,0.1-0.5,0.3-0.3C220.4,82.2,220.1,82.6,219.9,82.4L219.9,82.4z"/>
		<path class="st2" d="M216.3,89.6c-0.2-0.1,0.1-0.5,0.3-0.3C216.8,89.4,216.5,89.8,216.3,89.6L216.3,89.6z"/>
		<path class="st2" d="M181.9,238.8L181.9,238.8"/>
		<path class="st2" d="M184.2,237.9L184.2,237.9"/>
		<path class="st2" d="M184.1,233.2l0.2,0.2"/>
		<path class="st2" d="M183.9,233.1l0.1,0.1"/>
		<path class="st2" d="M237.6,196.8L237.6,196.8"/>
		<path class="st2" d="M233.8,93.8L233.8,93.8"/>
		<path class="st2" d="M238.2,105.7L238.2,105.7"/>
		<path class="st2" d="M98.8,120.2L98.8,120.2"/>
		<path class="st2" d="M159.4,135.2c0.5-0.1,1-0.2,1.4-0.4c0.3-1.4,0.9-2.7,1.6-3.9c-0.6-0.6-1.7,0.1-2.2,0.8c-1,1.4-1.9,3-2.5,4.7
			c-1.5-0.3-3.2,0.5-3.8,2c0.1,0.5,0.9,0.3,1.3-0.1c0.4-0.4,0.9-0.9,1.4-0.5c0.1,0.1,0.2,0.3,0.2,0.4c0.3,1-0.3,2.1-1,2.8
			s-1.8,1-2.8,1.4c-0.5,0.2-1,0.3-1.4,0.1c-0.9-0.5-0.3-1.9,0.3-2.7c2.2-2.8,3.7-6.1,4.4-9.6c-0.8-0.5-1.6,0.5-2,1.3
			c-1.7,3.3-3.3,6.7-5,10c-0.3,0.6-0.6,1.1-1.1,1.4c-0.6,0.3-1.4,0-1.5-0.6c0-0.3,0.1-0.6,0.2-0.8c1.4-2.6,2.9-5.1,4.4-7.6
			c0.8-1.3,1.6-2.7,2.4-4c0.2-0.4,0.6-0.9,1-0.9c0.8-0.1,1-1,1.2-1.8c0.2-0.7,0.7-1.7,1.5-1.4c-0.1,2.6-0.2,5.2-0.3,7.7
			c1.7-2.2,2.3-5.2,1.6-8c-0.2-0.7-0.5-1.5-0.5-2.2c-0.1-1.5,1-3,2.4-3.5c-0.4,1.1-0.8,2.2-0.7,3.4c0.1,1.1,0.8,2.3,1.9,2.6
			c1.6,0.5,1.9,2.6,1.8,4.2c-0.1,3.1-0.2,6.3-0.3,9.4c0,0.7-0.4,1.6-1,1.4c0.3-1.6-0.5-3.2-1.8-4.1
			C160.1,136.3,159.3,135.9,159.4,135.2z"/>
		<path class="st2" d="M158.4,137.4c0.6-0.1,1.3-0.2,1.9,0.1c0.6,0.2,1,0.9,0.8,1.5c-0.4,0.8-0.1,1.8-0.2,2.6
			c-0.1,0.9-1.1,1.8-1.8,1.2c0.7-1,0.1-2.6-1.1-2.9C158.3,139.1,158.4,138.3,158.4,137.4z"/>
		<path class="st2" d="M209.4,98c-0.8-2.5-1.2-5.1-1.3-7.7C209.8,92.4,210.3,95.4,209.4,98z"/>
		<path class="st2" d="M195.3,92.2c0.6-1.4,1.7-2.5,3.1-3.1c-0.8,1.2-1.5,2.4-2.3,3.6C195.8,92.6,195.5,92.4,195.3,92.2z"/>
		<path class="st2" d="M204.8,78.3c0.5,0.2,0.9,0.8,0.8,1.3c-1,0.1-2-0.4-2.5-1.2c0.6-0.1,1.2-0.2,1.7-0.2L204.8,78.3z"/>
		<path class="st2" d="M200.2,91.2c0.5,0,1.1,0.7,0.7,1.1c-0.5,0.1-1.1,0-1.6-0.2C199.1,91.7,199.7,91.4,200.2,91.2L200.2,91.2z"/>
		<path class="st2" d="M206.5,88.2c-0.1-0.4,0.1-1.1,0.5-0.8C207.5,87.6,206.9,88.6,206.5,88.2L206.5,88.2z"/>
		<path class="st2" d="M209.9,102.7c0.4,0,0.5,0.8,0.1,0.8C209.6,103.7,209.5,102.9,209.9,102.7L209.9,102.7z"/>
		<path class="st2" d="M119.1,129.9c-0.4,0.3-1-0.1-1-0.6c0-0.5,0.3-0.9,0.7-1.3c2-2.1,4.4-3.9,7-5.1c0.5,0.6-0.1,1.4-0.7,1.9
			C123.1,126.5,121.1,128.2,119.1,129.9z"/>
		<path class="st2" d="M124.8,145.8c-0.3,0.3-0.9,0.3-1.2-0.1c1.2-3.6,2.5-7.3,3.7-10.9c0.9,0.9,0.6,2.4,0.1,3.6
			C126.6,140.8,125.7,143.3,124.8,145.8z"/>
		<path class="st2" d="M130.3,134.8c0-0.3,0-0.7,0.2-0.9c0.1-0.2,0.3-0.3,0.5-0.3c0.6,2.9,0.9,5.9,1.1,8.9
			C130.9,140.1,130.3,137.5,130.3,134.8z"/>
		<path class="st2" d="M127.9,145.4c1.1,0.2,2.1-0.9,1.9-2c0.8,0.4,1.2,1.4,1,2.3c-0.9,0.4-2,0.5-2.9,0.3L127.9,145.4z"/>
		<path class="st2" d="M171.3,192.8c-0.4,0.6-1.2,0.9-1.9,0.7c0.6-1.3,2.1-2.3,3.5-1.8C172.4,192.1,171.9,192.5,171.3,192.8
			L171.3,192.8z"/>
		<path class="st2" d="M150.7,196.7c1.3,0.8,2.5,1.6,3.7,2.5c-0.4,0.7-1.4,0.9-2,0.4c-0.4,0.4-0.7,0.7-1.1,1.1
			C150.5,199.5,150.4,198,150.7,196.7z"/>
		<path class="st2" d="M122.6,190.9c0.1,1.6,0.2,3.2,0.2,4.9c0,1.2,0,2.4-0.1,3.7c-0.2,6.2-0.4,12.5-0.6,18.7c0,0.4-0.2,1-0.6,1
			c-0.3-10.8-0.6-21.6-0.9-32.4c-0.1-3-0.2-5.9-0.3-8.9c0-0.9,0.2-2.2,1.2-2.2C121.9,180.7,122.3,185.8,122.6,190.9z"/>
		<path class="st2" d="M134.9,202.1c-0.1-3.5-0.3-7-0.4-10.5c0-1,0.1-2.4,1.2-2.6c0.5,4.8,0.5,9.7,0,14.6
			C135,203.4,134.9,202.7,134.9,202.1L134.9,202.1z"/>
		<path class="st2" d="M136.2,205.5c0.1-0.9,0.5-1.7,1-2.4c1.2,1.7,1,4.3-0.6,5.7C135.8,208,135.6,206.5,136.2,205.5L136.2,205.5z"
			/>
		<path class="st2" d="M196.7,131.1c0-0.4,0.8-0.3,0.8,0.1c0,0.4-0.4,0.8-0.8,1c-0.6,0.4-1.2,0.8-1.7,1.1
			C195.1,132.4,195.7,131.6,196.7,131.1L196.7,131.1z"/>
		<path class="st2" d="M114.4,150.4c-0.3-6.8-0.6-13.6-0.9-20.4c-2.6,2.4-6,4-9.5,4.5c5-3.3,10.6-8.2,9.1-14
			c-2.5-9.3-3.6-18.9-3.2-28.5c1.8,1.8,1.9,4.6,2,7.2c0.3,8.9,2.1,17.7,5.3,26.1c12-12.1,24.3-24.4,39.1-33
			c-10.6,8-20.6,16.7-29.8,26.2c16.7-10,33.4-20,50.2-30c-1.8-0.8-2.3-3.3-1.5-5.1s2.4-3.1,4-4.3c2.5,0.8,3.1,4.8,0.9,6.3
			c0.6-1.4,0.2-3.2-0.9-4.3 M179,81.1c-1.8,1.1-2.8,3.4-2.4,5.4c1.7-0.1,3.4-0.2,5.1-0.3c0.2-2.2,0.6-4.5,2.2-6
			c1.6-1.5,4.9-1.1,5.3,1c8.9-4.5,17.9-9,26.8-13.5c-7.4,4.4-14.8,8.8-22.3,13.2c-2.4,1.5-5,3.1-6.1,5.7c-0.4-0.6-0.7-1.3-1.1-1.9
			c-2.3,1-4.6,2.1-6.3,4s-2.4,4.8-1,6.9c2.4,3.8-3.1,8.5-1.9,12.8c1.6,6.1-5.5,12.5-11.4,10.3c1.4-0.5,2.9-1,4.3-1.5
			c2-0.7,4.1-1.4,5.3-3.1c1.3-1.6,1.2-4.5-0.6-5.4c-0.7,1.3-1.7,2.6-2.8,3.7c-2,1.9-4.5,3.3-6.5,5.3s-3.5,4.8-2.8,7.5
			c-0.6-2.1-1.4-4.1-2.3-6c4-3.5,6.9-8.3,8.3-13.4c-1.4,3.3-4,6-7.2,7.7c-6.3,9.9-12.2,20.2-17.5,30.7c12.7,0.8,25.5,0.2,38-1.7
			c-3.6-1.9-3.8-6.9-3.4-10.9c1.4-12.9,4.9-25.6,10.3-37.3c2.7-5.9,6.4-12,12.4-14.5c0.9,2.2,2.3,4.3,3.9,6.1
			c-2.6-3.7-9.5-2.8-10.9,1.5c0.8-0.3,1.5-0.5,2.3-0.8c-4.3,4.5-7.1,10.2-9.8,15.8c-1,2-1.8,4.8,0,6.2c0.5-3.5,1.1-7.1,3-9.9
			c2-2.9,5.7-4.9,9-3.6c1.9,0.7,4.1-1.1,4.4-3.2c0.3-2.1-0.5-4.1-1.4-6c1.1,1.5,2.6,2.8,4.2,3.8c-1.5,2-2.4,4.3-2.7,6.8
			c0,3.2,0,6.3,0,9.5c2.3-2.8,3.4-6.6,2.7-10.2c1.4,6.2,2.6,12.5,2.2,18.8c-0.7,9.5-5,18.4-9.3,26.9c9.7-0.1,19.5-0.2,29.2-0.2
			c-5.1,0.4-10.2,1.4-15.1,2.8c-2.7-1.4-6.3-0.9-8.6,1.2c-2.2,2.1-2.9,5.7-1.6,8.5c1.5-0.5,2.9-1,4.4-1.4c-0.9-1.1-2.4-1.6-3.7-1.3
			c-1.2-0.6-0.2-2.6,1.1-2.8c1.3-0.3,2.8,0.2,4-0.4c1.2-0.7,0.6-3.2-0.6-2.5c3.1-1,6.2,3.5,4.2,6.1c-1.6,0.4-3.5-0.7-3.9-2.3
			c-1.6,1.1,0.4,3.4,1.9,4.7c5.1,4,5.4,12.8,0.6,17.2c0.9-3.6,1.9-7.2,2.8-10.8c-1.9,0.4-2.9,2.5-3,4.4c-0.2,1.9,0.1,3.9-0.6,5.7
			c-0.9,2.2-3.3,3.7-5.7,3.5c-2.4-0.2-4.5-2.2-4.9-4.5c2.7,0.9,6-0.2,7.6-2.6c1.6-2.4,1.5-5.8-0.3-8c-1.5-1.8-3.9-2.8-5.3-4.7
			c-2.5-3.2-0.9-8.6,2.9-10c-2.8-1.9-6.8,0.5-8,3.6c-1.2,3.1-0.5,6.7,0,10c1.1,7.8,0.9,15.8-0.7,23.5c4.6-2.4,9.2-4.8,13.8-7.2
			c1.3-0.7,2.8-1.4,4.2-1c2.2-3.6,6.2-6,10.4-6.4c-1.6-4.4-2.1-9.1-2.5-13.8c-0.2-2.3-0.4-4.8,0.7-6.9c1.1-2.1,3.9-3.5,5.8-2.2
			c-0.1,1.5-0.3,3-0.4,4.5c2.2-1.2,4.4-2.3,6.6-3.5c0,1.2-0.6,2.4-1.5,3.3c-0.9-0.7-2.2-0.8-3.2-0.1c0.6,0.7,1.3,1.4,1.9,2.2
			c-2.7,0.2-5.4-0.1-8-1c-0.2,1.5,0.5,3,1.8,3.9c1-0.5,2-1,3-1.6c0.1,0.9,0.2,1.7,0.4,2.6c-1.4,0.3-2.7,0.6-4.1,0.9
			c-1.5,2.4-1.6,5.6-0.3,8.1c3.2,0.1,6-3.3,5.3-6.4c-1.2,0.7-1.9,2.2-1.7,3.5c-0.6,1.2-2.6,0.3-2.7-1c-0.1-1.3,0.9-2.4,2-3.2
			c2.5-2.1,5.4-3.7,8.5-4.8c3.2-1.1,4.1-5.1,4-8.5c0-3.4-0.4-7.1,1.6-9.7c-1.9,20.9-3.7,41.8-5.6,62.7c-0.6-11.6,0-23.3,1.9-34.9
			c-2.2,0.7-4.3,1.3-6.5,2c3.5-1,6.3-4,7.1-7.5c-5.9,4.9-11.8,9.8-17.7,14.7c0.3,0.7-0.5,1.4-1.1,1.8c-12.9,8.3-26.3,15.7-40.2,22.2
			c4.1,2.2,5.7,8,3.4,12c-1.3,2.1-4.9,3.4-5.9,1.1c-0.3-0.6-0.2-1.2-0.2-1.8c0.1-3.5,0.2-7,0.2-10.5c-8.8,5.4-17.5,10.8-26.3,16.2
			c8.3-2.7,16.8-4.8,25.4-6.3c-5.6,3.7-12.4,4.7-18.9,6.3c-6.5,1.6-13.3,4-17.1,9.5c0-0.9-0.1-1.8-0.1-2.6c-7,4.1-14.2,8.4-18.9,15
			c-0.9,1.2-1.6,2.5-2.4,3.8c-0.3-2.5-0.6-5-1-7.6c-2.1,1.7-4.7,2.7-7.4,2.8c-0.1-3.1,5.3-2.9,6.9-5.6c0.6-0.9,0.5-2.1,0.5-3.2
			c-0.5-14.3-1-28.6-1.5-43c-1.4,10.6-1.5,21.4-0.2,32c0.4,3.2,0.9,6.5,0.3,9.7c-0.6,3.2-2.6,6.4-5.7,7.4c-1.7,0.5-0.9,3.4,0.8,3.8
			c1.7,0.4,3.3-0.8,4.7-1.9c-0.1,1.8-0.1,3.8,1.1,5.2c1.2,1.3,4.1,0.9,4.2-0.9c0.1-4,4.1-6.7,7.6-8.7c6.2-3.5,12.3-7,18.5-10.4
			c3-1.7,6.5-3.4,9.6-2.1c3.9-2.1,8.2-3.5,12.5-4.3c-0.4,1.5-0.8,3-1.2,4.5c1.1-2.6,3.4-4.6,6.1-5.4c-2.9,1.7-4.4,5.5-3.4,8.7
			c-2.1-1.3-4-2.9-5.6-4.7c1.4,4,2.9,8.1,4.3,12.1c-0.7-1.2-1.3-2.6-1.2-4s1.2-2.8,2.6-2.7c1.6,0.7,2.2,3.1,1,4.5
			c0.6,1,2.4,0.9,2.8-0.2c-1.4-3.1-2.1-6.5-2.2-9.8c0.1,1,1.3,1.7,2.2,1.3c0.9-0.4,1.1-1.8,0.4-2.5c0.8-0.4,1.8-0.1,2.2,0.6
			c0.4,2-1.7,4-3.7,3.5c0.8,2.7,1.7,5.4,2.5,8.1c-1.5,0.3-3,0.6-4.5,0.9c1.6,2.4,3.7,4.6,6,6.2c-0.8-1.5-1.7-3.1-2.5-4.6
			c1-1,2.7-1.2,3.9-0.4c-1.1,0.2-2,1.2-2.2,2.3c1.4,0.3,3,0,4.2-0.8c0.1,2.5-2.8,4.7-5.2,3.9c-0.7-0.2-1.4-0.7-2.1-0.6
			c-0.7,0.1-1.4,1.1-0.8,1.5c3.1,0.7,6.1,1.4,9.2,2c-1.3,0-2.7,0-4,0c-0.8,1-0.9,2.4-0.4,3.5c1.2,0.9,2.4,1.7,3.5,2.6
			c0.6,1-0.7,2.4-1.8,1.9c-1.3-2-2.7-4-4-6c0.2,2.5,0.9,4.9,2.1,7.1c-2,1.6-3.1,4.2-3,6.8c1.3-2.2,2.8-4.4,4.5-6.3
			c0.9,1.5,0.4,3.6-1.1,4.5c1.1,0,2.1,0.3,3,0.9c-0.5-0.9-0.6-2.1-0.1-3c2.3,0.1,2.2,3.6,0.9,5.5c-1.3,1.9-3,4.4-1.5,6.1
			c-1.2-0.4-2.7,0.4-3,1.7c1.4,0.1,2.8,0.4,4.2,0.9c0-1.3,0.6-2.5,1.5-3.3c0.2,1.2-0.2,2.6-1,3.5c1,0.8,1.7,2.1,1.8,3.4
			c-33.3,0-66.6,0-100,0c0-45.8,0-91.6,0.1-137.4c1,1.1,2.5,1.7,3.9,1.6c-1.1-1.2-2.5-2.2-4-2.9c0-1.2,0-2.4,0-3.6
			c1.6,0.1,3.3,0.3,4.9,0.4c0.5,1.5,0.7,3.1,0.4,4.7c1.6-0.6,3.1-1.8,4-3.2c1.6,1.5,3.9,2.1,6,1.6c-1.9,1.4-4.5,1.8-6.7,0.9
			c-0.7,1.5-1.9,2.7-3.4,3.4c1.3,1.6,4.4-0.3,3.7-2.2c2.1,0.3,2.7,3.6,1,4.7c1.2-0.7,2.1-2,2.4-3.3c0.9,0.9,1.2,2.3,0.8,3.5
			c1.4,0.5,2.7,0.9,4.1,1.4c-1-0.4-2.3,0.7-2,1.8c-1.8-1.8-5.6,0.9-4.4,3.2c0.9-0.8,1.8-1.6,2.7-2.4c0,1,1.3,1.4,2.2,1
			c0.9-0.4,1.4-1.3,1.9-2.2c0.4,1.1,0.8,2.2,1.1,3.3c-1.5,0.5-3,1.1-4.4,1.6c2.1,0.1,4.3,0.1,6.4,0.2c0.3,2-2.4,3.8-4.1,2.7
			c0.4,0.9,0.9,1.7,1.3,2.6c-1.6,2.3-3.1,4.6-4.7,6.9c-1.2,1.8-2.5,3.7-2.8,5.9c-0.3,2.2,0.6,4.7,2.6,5.5
			c9.6,3.8,16.2,13.9,15.8,24.2c-0.1,4.1-1.3,8.5,0.3,12.3c0.3-7,0.5-14,0.8-21c0.1-2.1-1.3-3.9-2.7-5.5
			c-4.6-5.3-9.9-10.1-15.7-14.2c5-8.3,10.3-16.4,15.7-24.4c-0.4,5.6-2.9,11.1-7,15c-3,2.9-2.6,8-0.3,11.5c2.3,3.5,6,5.7,9.7,7.7
			c0.3-4.1,0.6-8.1,0.9-12.2c0.1-1,0.1-2-0.3-2.8c-1.2-2.8-5.3-2-8.1-0.8c4.7,0.8,7.7,6.9,5.4,11.1c-4.3-0.3-7.9-4.8-7.1-9.1
			c0.9-4.3,6.1-7,10-5.1 M170.3,255.7L170.3,255.7 M173.1,259.9c0.2,0.2,0.4,0.4,0.5,0.6c0.3-0.1-0.1-0.7-0.3-0.4 M176.5,263.3
			c-0.1-0.2-0.1-0.5-0.2-0.7C176,262.7,176.1,263.2,176.5,263.3 M188.1,187.4c1.8-0.4,3.5-1.2,4.9-2.3
			C191.2,185.3,189.5,186.2,188.1,187.4 M152.2,173.9c-0.5,0-0.9,0.7-0.5,1c0.2-0.4,0.5-0.8,0.7-1.2 M170.1,243.6
			c-0.6,0.9-0.4,2.3,0.4,3c0-1-0.1-2-0.1-2.9c0.7,0.1,1.6,0.2,1.8-0.5c-0.6-0.5-1.6-0.2-1.9,0.5 M200.3,117.5
			c-0.1-0.4-0.7-0.6-1-0.3c-1.2,2.1-1.7,4.5-2.6,6.8c-1.3,3.4-3.7,6.3-6.6,8.4c-0.1,0.5,0.6,0.8,1,0.7c0.5-0.1,0.8-0.5,1.1-0.9
			c1.5-2.1,3.1-4.1,4.6-6.2c0.3-0.5,0.7-0.9,1.2-1.2c0.5-0.2,1.3-0.2,1.5,0.3c-0.1,0.6-0.6,1-1,1.5c-0.3,0.5-0.2,1.4,0.4,1.4
			c0.2,0,0.3-0.1,0.5-0.2c1.7-1,2.7-3,2.6-5c-0.1-0.9,0.6-1.6,1.2-2.3s1-1.8,0.4-2.4c-2,0.9-3.3,3-3.1,5.2c-0.4,0.6-1.5,0.2-1.8-0.5
			c-0.3-0.7,0-1.5,0.3-2.2C199.5,119.6,199.9,118.5,200.3,117.5 M169.6,104.2c0.5,0.2,1.2-0.1,1.5-0.6c0.3-0.5,0.4-1.1,0.6-1.7
			c0.5-2.2,1.9-4.1,3.7-5.4c0.4-0.3,0.8-0.5,1-0.9c0.2-0.4,0.2-0.8,0.4-1.2c0.2-0.6,0.7-1.1,1-1.7c0.3-0.6,0.3-1.5-0.3-1.7
			C175.2,95.6,171.2,99.3,169.6,104.2 M129.2,130.7c4.6-0.7,7.9-4.9,10-9.1s3.5-8.9,6.7-12.3c-1.4,5.5-3.7,10.8-6.7,15.7
			c4.2-0.1,6.4-5,7.3-9.1c0.9-4.1,2.5-9.1,6.6-9.9c-3.3,6.9-6.5,13.8-9.8,20.7c-4.5,1.5-8.8,3.5-13,5.7c-1.4,0.8-3-1-2.9-2.5
			c0.1-1.6,1.2-2.8,2.1-4.1c0.9-1.3,1.6-3,0.9-4.4c-1.4,2.5-2.8,5-4.2,7.5c0-3.2,0.6-6.4,1.8-9.4c-3.6,2.1-7,4.6-10.1,7.3
			c-0.7,0.7-0.8,1.8-0.7,2.8c0.3,6.3,0.6,12.5,0.9,18.8c0,0.6,0.3,1.3,0.8,1.2c2.9-0.4,5.8-0.8,8.6-1.2c1.5-0.2,3.3-0.4,4.5,0.6
			c1.4,1.1,1.4,3.1,1.4,4.8c-0.1,4.2-0.1,8.3-0.2,12.5c0,1.7,1,4.2,2.5,3.4c0.9-0.4,1-1.6,0.9-2.6c-0.1-4.3-0.3-8.5-0.4-12.8
			c0-1.5-0.1-3.1-0.8-4.5s-2.3-2.4-3.7-2c0.3-1.3,2.2-1.2,3.6-1.4c3.6-0.7,4.3-5.5,4.1-9.1c-0.2-3.7,0-8.3,3.4-9.6
			c1.1-0.4,1.7-1.5,2.3-2.5c3.7-6.8,7.4-13.7,11.1-20.5c-5.4,0.1-10.4,3.2-13.9,7.4c-3.4,4.2-5.4,9.3-6.9,14.5
			c0.1-1.3,0.1-2.6,0.2-3.9C133.5,125.3,131.4,128,129.2,130.7 M166.6,196.9c4.9-2.8,9.8-5.6,14.7-8.6c2,0,3.7-1.9,3.5-3.8
			c-0.6-0.5-1.2,0.5-1.6,1.2c-0.9,1.5-3.3,1.4-4.6,0.2c-1.3-1.2-1.8-2.9-2.2-4.6c-2.5-10.6-3.3-21.7-2.2-32.5
			c0.1-0.8,0.2-1.6-0.1-2.4c-0.3-0.7-1.1-1.3-1.9-1.1c-1.7,0.5-3.5,0.2-5.2,0.4s-3.7,1-4.1,2.7c-0.4,1.7,2,3.5,3.1,2.2
			c-0.8-0.7-1.3-1.7-1.4-2.8c1.6,0.2,2.4,2,2.9,3.5C171.9,166.1,171.6,182.2,166.6,196.9 M188.3,130.8c0.5,0,1-0.2,1.4-0.5
			c2.1-1.3,3.4-3.5,4.5-5.7c4-7.8,6.7-16.3,7.9-24.9c0.1-0.5,0.1-1.1,0-1.6c-0.3-1-1.6-1.4-2.6-1.3c-1,0.2-1.9,0.9-2.7,1.6
			c-4.4,4.1-7,9.6-9.2,15.1c-2,4.8-3.8,10.3-1.7,15.1C186.3,129.7,187.2,130.8,188.3,130.8 M158,156.3c-2.7,5.2-5.2,10.6-7.6,16
			c0.6,0.3,1.3-0.3,1.6-0.9c2-3.2,3.6-6.6,4.8-10.2c1.1,3.4-2.9,6.9-1.8,10.2c0.3,1-0.2,2-0.7,2.9c-1.9,4-1.9,8.9,0.1,12.9
			c0.6,1.1,1.4,2.2,2.5,2.7c1.2,0.5,2.7,0.1,3.2-1.1c-4.6-8.9-4.6-19.9,0-28.8c0.9,1.2,0.3,2.9-0.1,4.3c-2.5,7.4-2,15.8,1.3,22.9
			c2.2-6,2.4-12.4,2.6-18.8c0.1-4.5,0.2-9.3-2.5-12.9c-0.8,1.2-1.9,2.3-3.2,3c0.3-2,1.7-3.8,3.6-4.7c0.4,1.3,2.4,1.6,3.1,0.5
			c1.1,1.5,1.6,3.5,1.3,5.4c-0.1,0.6-0.3,1.3,0,1.8c0.2,0.6,1.1,0.9,1.5,0.5c0.2-2.2,0.3-4.6-0.6-6.7s-3.2-3.7-5.4-3.1
			C160,152.8,158.9,154.6,158,156.3 M146.7,145.9c-1.2,11.4-0.7,22.9,0.3,34.3c0.7,8.2,1.7,16.3,2.6,24.5c2.1-1.1,4-2.6,5.6-4.4
			c0.5,0.3,0.7,0.9,0.7,1.5c0.8-0.8,1.9-1.3,3.1-1.2c-1-1.9-3.1-2.9-4.7-4.1c-1.7-1.3-3.2-3.4-2.4-5.4c0.3-0.7-1.1-0.7-1.8-1
			c-1.3-0.7,0-2.7-0.3-4.2c-2.8-12.9-0.3-26.9,6.7-38.1c0.4-0.4,1.2,0,1.3,0.6c0.1,0.6-0.2,1.1-0.5,1.7c-1.1,1.7-2.1,3.4-3.2,5.2
			c3.3-2.2,6.1-5.3,7.9-8.8C156.9,146.8,151.8,146.7,146.7,145.9 M120.4,221.2c1,0.4,2.2-0.2,2.8-1.2c0.6-0.9,0.6-2.1,0.7-3.2
			c1.1-21.5,0.4-43-2.3-64.4c0-0.4-0.1-0.8-0.4-1.1c-0.5-0.6-1.6-0.4-2.1,0.3s-0.5,1.5-0.5,2.4C118.3,176.4,118.8,198.9,120.4,221.2
			 M182.3,178.7c0.3,1.4,2.4,1.7,3.5,0.7s1.4-2.5,1.6-3.9c1.1-7.9,0.4-15.9-0.3-23.9c-0.2-1.8-0.3-3.6-1.4-5
			c-1.2-1.6-3.5-2.3-5.4-1.7c-0.7,0.2-1.5,0.8-1.4,1.6c0.6,3.8,0.2,7.6,0.3,11.4C179.3,164.9,180.7,171.9,182.3,178.7 M134.5,214.3
			c1.2,0,2.4-0.6,3-1.6c-0.5,0.1-1,0.1-1.5-0.1c-0.5-0.2-0.8-0.8-0.5-1.2c0.1-0.2,0.4-0.3,0.7-0.4c1.1-0.4,2.1-0.8,3.2-1.2
			c0.3-0.1,0.3-0.4,0.3-0.7c-0.2-7.7-0.5-15.4-0.7-23.1c-1,0.3-2,0.7-3,1c-1.6,0.5-2.7,2.3-2.9,4c-0.3,1.7,0.1,3.4,0.3,5.1
			c0.7,4.6,0.8,9.2,0.5,13.8C133.6,211.4,133.5,213.1,134.5,214.3 M149.2,129.5c0.1,0.9,0.1,2.4-0.8,2.3c-0.3-0.7-0.2-1.6,0.3-2.3
			c-0.3-0.3-0.9-0.3-1.2,0c-1.2,0.6-1.4,2.5-0.3,3.3c1,0.8,2.8,0.1,3.1-1.2c0.5-2.7,2.6-4.9,3.7-7.4c1.5-3.4,1.6-7.7,4.5-9.9
			c0.6-0.4,1.2-0.8,1.6-1.4c0.4-0.6,0.3-1.6-0.3-1.8c0.3-0.6,1.3-0.6,1.7-0.1c0.6-2.4,1.2-4.7,1.9-7.1c0.4-1.7,0.9-3.4,0.4-5.1
			c-0.8-0.2-1.4,0.7-1.7,1.5c-0.5,1.3-0.9,2.5-1.4,3.8c-0.2,0.5-0.4,1-0.8,1.3c-0.6,0.4-1.4,0.4-2,0.6c-0.7,0.2-1.2,1.1-0.7,1.6
			c0.5-0.4,1.2-0.5,1.8-0.2c-1.5,2.9-2.9,5.8-4.4,8.8c-0.5,1-1,1.9-1.1,3c-0.1,0.9,0,1.9-0.3,2.8c-0.5,1.4-1.9,2.2-2.8,3.4
			C149.4,126.5,149,128,149.2,129.5 M192.4,135c1.2-0.9,2.9-0.6,4.2-1.1c1-0.4,1.9-1.2,2.3-2.2c0.2-0.6,0.3-1.3-0.1-1.8
			c-0.7-1.2-2.7-0.7-3.6,0.4c-0.9,1.1-1.4,2.6-2.5,3.4c-1.8,1.3-4.2,0.5-6.2-0.3c-0.6-0.2-1.2-0.5-1.6-1c-0.7-0.9-0.7-2.7-1.8-2.7
			c0,3.2,0.2,6.4,0.6,9.6c0.1,1.2,0.4,2.5,1.4,3c1.2,0.7,2.7-0.2,3.8-1c2.2-1.6,4.4-3.1,6.7-4.7c-0.5-0.5-1.3-0.2-2-0.1
			c-0.7,0.2-1.6,0.1-1.7-0.6C191.9,135.6,192.1,135.2,192.4,135 M195.6,141.3c2.1-0.6,3.3-2.8,4.2-4.7c1.7-3.4,3.3-6.8,5-10.3
			c0.8-1.7,1.6-3.4,1.7-5.2c0.1-2.4,0.6-4.8,1.5-7.1c-2,0.8-2.6,3.4-3.1,5.5c-1.8,8.5-5.9,16.6-11.8,23.1c0.9,0.1,1.8,0.1,2.6,0.1
			C196.1,142.2,196,141.6,195.6,141.3 M201.2,118.8c2.6-2.7,4.7-5.9,6.4-9.3c-1-0.2-2,0.8-1.8,1.8c-0.7,0.2-1.2-0.8-1-1.5
			s0.8-1.2,1.3-1.7c0.4-0.6,0.7-1.5,0.2-2c-0.6,0.9-2.3-0.1-2.9,0.7c-0.2,0.2-0.2,0.5-0.3,0.8C202.4,111.3,201.8,115,201.2,118.8
			 M139,215.4c4.1-2.3,8.8-4.1,11.8-7.7c-7.1,3.4-13.9,7.4-20.2,12c-0.9,0.6-1.9,1.5-1.8,2.6c0.9,0.2,1.7-0.4,2.3-1.1
			C133.5,219,136.1,217,139,215.4 M168.4,175.5c-1.5,0.5-2.6,2-2.6,3.6c0,1.2,0.7,2.4,0.9,3.6c0.4,2.1-0.5,4.2-1.4,6.2
			c-1,2.1-1.9,4.2-2.9,6.3c0.1,0.4,0.7,0.5,1,0.3c0.4-0.2,0.6-0.6,0.7-0.9c1.8-3.6,3.7-7.3,3.6-11.4
			C167.8,180.5,167,177.7,168.4,175.5 M144.5,147.8c-0.3-0.4-1-0.3-1.3,0.1c-0.3,0.4-0.3,1-0.3,1.5c0.2,2.3,1.1,4.6,1.1,6.9
			c0,1.5-0.4,2.9-0.6,4.4c-0.2,1.8-0.1,3.6,0,5.4c0,0.3,0.1,0.6,0.3,0.7c0.5,0.3,0.9-0.5,0.9-1c0.3-5.8,0.7-11.6,0.2-17.4
			C144.6,148.2,144.6,148,144.5,147.8 M152.9,113.9c-1.1,2.1-2.1,4.3-3.2,6.4c-0.8,1.5-1.6,3.1-2.5,4.5c-0.5,0.7-1,1.4-1.1,2.2
			c-0.1,0.8,0.3,1.8,1.1,1.9c0.2-3.4,3.7-5.6,4.4-8.9c0.4-2.1,1.4-4.2,2.8-5.9C154,113.7,153.3,113.6,152.9,113.9 M163.4,109.3
			c-0.3,0.6-0.2,1.7,0.4,1.6c3-5.4,6-10.9,8.8-16.4c-0.1-0.3-0.5-0.5-0.8-0.3c-0.2,0.1-0.3,0.3-0.4,0.4
			C168.4,99.3,165.7,104.2,163.4,109.3 M180.4,134.8c-0.1,2.1,0,4.7,1.9,5.7c-0.5-4.2-0.9-8.4-0.1-12.5c0.3-1.4,0.7-2.9,0-4.2
			c-1.2,1.5-1.3,3.6-1.4,5.5C180.6,131.1,180.5,133,180.4,134.8 M141.2,142.2c-0.2,0.4-0.4,0.9-0.3,1.4c0.1,0.5,0.5,0.9,1,0.8
			c1.4-2.8,2.9-5.5,4.3-8.3c0.3-0.6,0.6-1.2,0.7-1.9c0-0.7-0.3-1.4-1-1.7c-0.4,0.7-0.7,1.4-1.1,2
			C143.6,137.1,142.4,139.6,141.2,142.2 M192.4,164.3c-1.2-3.1-0.3-6.9,2-9.3c0.3-0.3,0.1-0.9-0.2-1c-3.4,2.4-4.9,7.2-3.5,11.1
			C191.2,164.9,191.8,164.6,192.4,164.3 M134.9,183.2c0.3,0.4,0.6,0.7,0.9,1.1c0.7,0.2,0.7-0.9,0.6-1.6c-0.2-1.2,0.3-2.4,1.2-3.3
			c0.8-0.7,1.9-1.6,1.4-2.4c-0.4,0.9-1.8,0.4-2.6,1c-0.3,0.2-0.4,0.5-0.6,0.8c-0.8,1.7-1.7,3.3-2.5,5c-0.2,0.3-0.3,0.7-0.2,1
			c0.2,0.6,1.1,0.5,1.5,0.1C134.9,184.4,134.9,183.8,134.9,183.2 M114.8,163.5c-0.3,4.2-0.1,8.5,0.5,12.7c0.1,0.8,0.6,1.5,1.3,1.9
			C116.6,173.3,116.1,168.3,114.8,163.5 M139.4,112.1c-2.4,1.2-4.6,2.7-6.7,4.4c0.5,0.3,0.9,0.7,1.4,1c-1.3,0.9-2.1,2.5-1.9,4.1
			c1.5-0.9,2.6-2.6,2.6-4.4c0-0.6,0.6-1.1,1-1.4c1.4-1.1,2.9-2.2,4.3-3.4C140.1,112.1,139.7,112,139.4,112.1 M237.2,151.8
			c-2.4,0.2-4.6,1.9-5.4,4.2c-0.1,0.3-0.2,0.6-0.1,0.9c0,0.3,0.2,0.5,0.4,0.7c0.9-1.2,2-2.4,3.3-3.3c0,0.7,0.5,1.4,1.2,1.6
			C237.3,154.7,237.6,153.1,237.2,151.8 M165.8,167.8c0.4-0.6,0.7-1.1,1.1-1.7c0.4,0.9,0.9,1.9,0.9,2.9c0,1-0.5,2.1-1.4,2.5
			c-0.5,0.2-0.2,1.1,0.3,1.2c0.6,0.1,1-0.4,1.4-0.9c1.4-2.1,0.8-4.9,0.3-7.3c-0.1-0.3-0.1-0.6-0.4-0.7c-0.4-0.2-0.9,0.2-1.2,0.6
			C166,165.4,165.3,166.7,165.8,167.8 M171.5,231.1c0.3-0.2,0.5-0.6,0.6-1c-0.7-0.3-1.1-1.1-1.1-1.8c0.6-0.5,1.7,0.3,1.4,1.1
			c0.6,0.4,1.4-0.6,1.1-1.3c-0.3-0.7-1.2-0.9-1.9-1.1c-0.8-0.2-1.6-0.4-2.4-0.6c-1.6,1.9-1.7,5-0.1,7c0.3,0.1,0.6-0.3,0.5-0.7
			c-0.1-0.3-0.3-0.6-0.5-0.9c-0.9-1.4-0.1-3.7,1.5-4.2C170.1,228.8,170.4,230.4,171.5,231.1 M131.9,160.9c-0.9-0.2-1.3,0.9-1.5,1.8
			c-0.7,2.5-2.8,4.3-4.7,6.1c-0.8,0.7-1.4,2.2-0.5,2.7c1.1-2,2.6-3.8,4.5-5.1C131.3,165.2,131.7,162.9,131.9,160.9 M164.9,104.1
			c1.5-2.8,3-5.6,4.5-8.4c0.2-0.4,0.2-1-0.1-1.3C166.3,96.6,164.6,100.4,164.9,104.1 M124.4,166.5c1.3-0.6,2.1-2.1,1.9-3.5
			c-0.4,0.4-1.2,0-1.4-0.6c-0.2-0.6,0-1.2,0.1-1.7c0.4-1.2,0.8-2.5,1.1-3.7c-0.6-0.5-1.6,0-2,0.7c-0.4,0.7-0.3,1.5-0.3,2.3
			C124.1,162.2,124.3,164.4,124.4,166.5 M195,95.9c-2.7,1.4-4.7,3.9-5.7,6.7c-0.1,0.4,0,1.2,0.4,1c1.7-2.1,3.4-4.1,5-6.2
			C195.2,97,195.5,96.2,195,95.9 M193.5,175.7c-1.2,0.9-2.5,1.9-2.9,3.3c-0.4,1.4,0.6,3.3,2.1,3.2c1-0.1,1.8-1.4,1.4-2.3
			c-0.5,0.6-1.7,0.6-2.2-0.1C192.9,178.7,193.5,177.2,193.5,175.7 M178.7,205.1c1.3-0.5,1.9-2,2-3.3c0.1-1.4-0.4-2.7-0.9-4
			c-0.2-0.6-0.7-1.3-1.3-1.1C178.7,199.4,178.7,202.3,178.7,205.1 M127.7,223c-2.6,0.3-5.1,1.6-6.7,3.7c-0.5,0.7-0.9,1.6-0.5,2.3
			C122.9,227,125.3,225,127.7,223 M195.1,148.8c0.2-0.6-0.6-1.1-1.2-0.8c-0.5,0.2-0.8,0.9-0.9,1.4c-0.1,0.6-0.1,1.2-0.3,1.8
			c-0.6,1.8-3.4,2.8-2.8,4.6C192.4,154.1,194.3,151.6,195.1,148.8 M174.9,106.1c-0.7-1.7-0.8-3.6-0.2-5.3c-0.7-0.2-1.4,0.6-1.5,1.3
			c-0.2,0.7-0.1,1.5-0.5,2.2c-0.3,0.6-0.9,0.9-1.3,1.4s-0.5,1.4,0.1,1.7C171.9,106,173.7,105.4,174.9,106.1 M142.8,134.3
			c0.7-1.4,1.4-2.9,2.1-4.3c0.2-0.3,0.3-0.7,0.2-1c-0.1-0.3-0.5-0.6-0.8-0.5c-1.4,1.9-2.6,4.1-3.3,6.4c0.1,0.4,0.6,0.5,1,0.3
			C142.5,135.1,142.7,134.7,142.8,134.3 M140.2,148.5c-0.3-0.5-1.1-0.5-1.5-0.1c-0.4,0.4-0.5,1-0.6,1.6c-0.2,1.6,0,3.2,0.3,4.8
			c1-1.7,1.6-3.6,1.8-5.5C140.2,149,140.3,148.8,140.2,148.5 M112.5,201.1c-0.1,2.9-0.1,5.8-0.2,8.7c0,0.5,0.2,1.3,0.7,1.3
			C113.9,207.8,113.8,204.3,112.5,201.1 M139.1,161.3c0.7-0.2,0.8-1,0.7-1.7c-0.1-0.7-0.4-1.4-0.2-2c0.2-0.7,0.9-1.1,1.4-1.6
			c0.5-0.5,1-1.3,0.6-1.9c-0.7,0.8-1.8,1.2-2.9,1.2C138.1,157.3,138.3,159.5,139.1,161.3 M131.6,151.7c0-0.5,0-1-0.4-1.3
			c-0.4-0.3-1.1,0-0.9,0.5c-0.4,2.3-1.3,4.6-2.7,6.5C129.8,156.4,131.5,154.2,131.6,151.7 M208,154.3c-0.9-0.4-2.1-0.4-3,0.1
			c1.5,1.5,3.9,1.9,5.9,1.2c-0.1-1.2-1.5-2-2.6-1.6 M129.3,161.3c0.5-0.8,1.4-1.3,2-2.1c0.5-0.8,0.5-2.2-0.5-2.4c-1.2,2-2.4,4-3.5,6
			C128.1,163.4,128.8,162.1,129.3,161.3 M182.2,184.2c0.2-0.5-0.2-0.9-0.5-1.3c-1-0.9-2.2-1.6-3.5-1.9c0.3,1.7,1.3,3.8,3,3.7
			C181.7,184.7,182.1,184.6,182.2,184.2 M158.2,101.7c-1,0.1-1.9,0.8-2.1,1.7c0.7,0.2,1.3,0.8,1.5,1.5c1.2-1.1,2.1-2.7,2.3-4.3
			c-0.3-0.2-0.6-0.2-1-0.2c-0.2,0.4-0.5,0.7-0.7,1.1 M185.4,81.2c-1.1,0.5-1.6,1.9-1.1,3c0.8-0.1,1.5-0.3,2.2-0.8
			c0.6-0.5,1-1.3,0.7-2C186.9,80.7,185.7,80.5,185.4,81.2 M194,175c1.1-1,0.6-2.8,0.6-4.2c0-0.9,0.3-1.8,0.9-2.6
			c-1.3-0.4-2.4,1.4-2.2,2.7S194.1,173.6,194,175 M125.9,177.2c-0.2,0.9-0.2,1.8-0.1,2.7c1.9-1.2,3.4-3.1,4-5.3
			C128.7,175.7,127.5,177,125.9,177.2 M156.1,156.2c-2.1,0.9-3.7,2.6-4.5,4.7C153.8,160.1,155.5,158.3,156.1,156.2 M226.4,146.5
			c0.1-0.5,0.3-1,0.4-1.5c-0.9-0.2-1.8-0.2-2.8-0.1c-0.7,0.6-0.6,1.8,0.1,2.2c0.7,0.5,1.8,0.1,2.1-0.7 M115.5,130.6
			c-0.4,2.7,0,5.4,0.9,7.9C116.8,135.9,116.5,133.1,115.5,130.6 M126.8,203.1c-0.8,2-1,4.2-0.4,6.3
			C127.6,207.6,127.8,205,126.8,203.1 M140.9,195.5c0,1.2,0.1,2.4,0.1,3.7c0.9,0.1,1.5-1.1,1.4-2.1c-0.1-0.9-0.6-1.9-0.4-2.8
			C141.5,193.8,140.9,194.8,140.9,195.5 M211.5,158.8c0.6-1.3-1.3-2.9-2.5-2.1c0.6,1.1,1.1,2.3,1.7,3.4
			C211.3,160,211.7,159.3,211.5,158.8 M154.3,112.6c0.3,0,0.5-0.3,0.6-0.6c0.7-1.2,1.3-2.4,2-3.6c-1.4-0.2-2.4,1.4-3,2.7
			C153.7,111.7,153.7,112.7,154.3,112.6 M126.9,189.3c-0.7,1.6-0.6,3.5,0.1,5.1c0.1,0.2,0.4,0,0.3-0.2
			C127.9,192.5,128.4,190.3,126.9,189.3 M116.4,154.1c0.2,1.8,0.5,3.6,0.7,5.4c0.1-2.3,0.3-4.6,0.4-6.9c-0.3-0.3-0.8-0.1-1,0.2
			C116.3,153.3,116.4,153.7,116.4,154.1 M131,216.7c0.8-1,1.2-2.3,1-3.6c-0.1-0.5-0.3-1-0.6-1.3C130.3,213.2,130.1,215.2,131,216.7
			 M86.9,123.4c-0.6-0.3-1.2-0.4-1.8-0.3c-0.2,0.2-0.2,0.6-0.2,0.8c1.1,0.6,2.2,1.2,3.4,1.8C88.7,124.8,87.9,123.5,86.9,123.4
			 M178,173.6c0,1,0.8,1.8,1.7,2c-0.2-1.4-0.6-2.8-1.2-4.2c-0.2-0.3-0.7-0.3-1,0C177.4,172.2,177.6,173,178,173.6 M194.3,162.3
			c0.8-1,1-2.4,0.6-3.6c-0.7,0.5-1.5,1-1.8,1.8C192.9,161.3,193.5,162.4,194.3,162.3 M175.7,161.3c0,0.7,0,1.5,0,2.2
			c0.5,0.3,1.2-0.2,1.2-0.7c0-1.3-0.1-2.5-0.1-3.8c-0.4-0.1-0.8,0-1.1,0.2C175.7,159.9,175.7,160.6,175.7,161.3 M177.1,155.5
			c0.4-0.7,0.5-1.4,0.4-2.2c-0.3-0.2-0.6-0.2-0.9-0.2c-0.7,1.1-1.1,2.3-1.1,3.6c0.7,0.4,1.8-0.4,1.5-1.2 M184.4,114.2
			c0.8-1.3,1.4-2.7,1.9-4.2c-1.6,0.7-2.7,2.5-2.7,4.2c-0.2,0.2,0.1,0.5,0.3,0.4S184.3,114.4,184.4,114.2 M127.5,173.6
			c0.5-0.6,0.7-1.5,0.7-2.3c-1.5,0.9-2.7,2.5-2.9,4.2c1-0.1,1.9-1,2.1-2 M195.8,182.9c-1,0.1-1.9,0.8-2.4,1.6
			c1.7,0.2,3.5-0.5,4.5-1.8C197.3,182.4,196.4,182.5,195.8,182.9 M142.7,180.2c-1.4,1-2.5,2.6-2.8,4.3
			C141.7,184,142.6,182,142.7,180.2 M175.7,254.8c0.3,0.5,0.6,1.1,0.9,1.6c0.3,0.1,0.7,0,1-0.2c-0.1-1.2-0.6-2.4-1.4-3.4
			c-0.3-0.1-0.7,0-0.9,0.2C175.5,253.5,175.6,254.1,175.7,254.8 M162.7,197.6c0.4-0.2,0.2-0.8-0.2-0.8c-0.9,0.4-1.9,0.6-2.9,0.7
			c-0.2,0.3-0.2,0.6-0.2,0.9C160.4,199.1,162.1,198.7,162.7,197.6 M130.5,199.7c-0.1,0.6-0.3,1.1-0.4,1.7c1.8-0.3,2.5-3,1.1-4.1
			C131,198.1,130.8,198.9,130.5,199.7 M175.5,150.5c0.2,0.5,1,0.6,1.4,0.2c0.4-0.4,0.6-0.9,0.7-1.5c0.1-0.4,0.2-0.8-0.1-1.1
			c-0.3-0.5-1.2-0.3-1.5,0.3s-0.2,1.2,0,1.8 M208.6,168.8c0.7-0.3,0.9-1.3,0.3-1.8c-1,1-2,2-2.9,3
			C207,170.3,208.1,169.8,208.6,168.8 M188.5,183.7c-0.6,0.6-1.2,1.3-1.8,1.9c1.5-0.2,2.9-1,3.9-2.1
			C190.4,182.7,189.1,183.1,188.5,183.7 M190.6,148.7c-0.9,0.8-1.1,2.2-0.5,3.2c0.8-0.9,1.4-2,1.6-3.2
			C191.4,148.4,190.9,148.4,190.6,148.7 M142.1,173.5c0.7-0.9,1.4-1.8,2.1-2.7c0.3-0.4,0.6-1.1,0.2-1.4
			C142.9,170.2,142,171.9,142.1,173.5 M185.8,183.3c1.4-0.2,2.5-1.6,2.5-3C186.9,180.7,185.9,182,185.8,183.3 M189.1,144.7
			c-1.1-0.4-2.3-0.3-3.3,0.3C186.5,146.1,188.6,145.9,189.1,144.7 M124.5,152.8c0.7-0.4,1.1-1.2,0.9-2c-1-0.6-2.4,0.9-1.7,1.8
			c0.3,0.1,0.5,0.2,0.8,0.3 M180.1,251.5c0.1,0.4,0.7,0.6,1,0.4c0-1.1-0.6-2.2-1.6-2.8C179.1,249.8,179.3,251,180.1,251.5
			 M127.5,216.7c-0.4-0.6-1.3-0.5-1.7,0s0.1,1.4,0.8,1.5c0.8,0,1.5-0.9,1.2-1.7 M133.3,177.6c0.1,0.4,0.1,0.8,0.2,1.3
			c1-1,1.6-2.4,1.7-3.8c-0.9,0.5-1.6,1.5-1.6,2.5 M133.7,173.3c0.5-0.4,0.4-1.3-0.2-1.6c-0.9,0.6-1.4,1.7-1.3,2.8
			c0.7,0.1,1.3-0.5,1.3-1.2 M139.8,168.8c0,0.4,0.3,0.7,0.7,0.7c0.3-1.1,0.3-2.3,0-3.4C139.5,166.6,139.1,167.9,139.8,168.8
			 M131.2,118.3c0.3-0.2,0.2-0.8-0.2-0.9c-0.9,0.3-1.7,1-2.1,1.9C129.7,119.8,131,119.2,131.2,118.3 M140.3,165.7
			c0.8-0.5,1.2-1.6,0.9-2.5c-0.6,0.3-1.2,0.6-1.8,1c-0.1,0.7,0.3,1.4,0.9,1.7 M156.5,194.6c0.2,0.2,0.6,0.3,0.8,0.1
			c0.7-0.5,1-1.7,0.6-2.5C157.1,192.7,156.5,193.7,156.5,194.6 M178.1,167.3c-0.4-0.1-0.9,0-1.3,0.1c-0.2,1,1,1.9,1.9,1.5
			c-0.2-0.6-0.3-1.1-0.5-1.7 M171.6,220.2c-0.2-0.4-0.9-0.5-1.2-0.2c-0.2,0.9,0.4,1.8,1.2,2c0.2-0.3,0.3-0.6,0.5-0.9
			C171.9,220.8,171.7,220.5,171.6,220.2 M177.2,99.4c0.7-0.5,0.4-1.8-0.5-2c-0.6,0.7-0.6,1.9,0,2.6c0.2-0.2,0.4-0.4,0.6-0.5
			 M178.6,262.8c0.9,0,1.8-0.4,2.2-1.2c-0.8-0.8-2.4,0-2.2,1.1 M147.5,204.4c0.1-0.6,0-1.4-0.6-1.6c-0.3,1.1-0.2,2.2,0,3.3
			C147.6,205.9,148,204.9,147.5,204.4 M164.9,228.7c0.1,0.4,0.4,0.8,0.9,1c0.5-0.6,0.7-1.4,0.5-2.1
			C165.6,227.4,164.9,228,164.9,228.7 M191.6,167.9c-0.1-0.4-0.6-0.6-1-0.4c-0.2,0.8-0.1,1.7,0.5,2.4
			C191.6,169.4,191.8,168.6,191.6,167.9 M88.1,130.9c-0.3-0.4-0.6-0.8-0.8-1.2c-0.4,0.2-0.9,0.3-1.3,0.5
			C86.1,131.2,87.5,131.6,88.1,130.9 M164.7,158.9c0.4,0.1,1-0.1,0.9-0.5c-0.3-0.6-0.7-1.2-1.2-1.6c-0.3,0.2-0.5,0.6-0.6,0.9
			C164.2,158,164.5,158.5,164.7,158.9 M162,214c-0.5,0.1-0.7,0.8-0.5,1.3c0.2,0.5,0.7,0.8,1.1,1.2c0.4-0.8,0.2-1.8-0.6-2.3
			 M211,149.5c0.3,0.1,0.6,0,0.9-0.2c0-0.5,0-1,0-1.5c-0.4-0.3-1.1-0.1-1.3,0.4C210.4,148.7,210.6,149.3,211,149.5 M115.2,124
			c0.1-0.5,0-1.3-0.5-1.3c-0.3,1-0.3,2,0,3C115.3,125.4,115.5,124.6,115.2,124 M99.5,159c0.3,0.3,0.5,0.5,0.8,0.8
			c0.7-0.7,0.2-2.1-0.8-2.2C99.2,158,99.2,158.5,99.5,159 M132.4,124.9c0.6-0.6,0.7-1.5,0.4-2.2c-0.9,0.3-1.2,1.7-0.5,2.3
			 M184.7,188.6c-0.1,0.5,0.6,0.9,1.1,0.7c0.5-0.2,0.8-0.7,1-1.2c-0.7-0.2-1.4,0.1-1.9,0.6 M169.6,251.8c0.7,0.6,2,0.2,2.2-0.7
			c-0.8-0.1-1.7,0.1-2.3,0.6 M171.5,249.7c-0.1,0.4,0.7,0.2,0.8-0.2c0.2-0.6,0.2-1.3,0-1.9C171.9,248.2,171.6,249,171.5,249.7
			 M179.7,178.6c-0.3,0.5,0.8,0.8,1,0.2c0.2-0.5-0.3-1.1-0.9-1.3c-0.1,0.3-0.2,0.7-0.3,1 M141.3,202.8c0.8-0.1,1.3-1.2,0.9-1.8
			c-0.7,0.1-1.2,1-0.8,1.6 M131.1,207.1c0.1,0.4,0.7,0.5,0.9,0.2c-0.1-0.6-0.1-1.1-0.2-1.7C131.2,205.8,130.7,206.5,131.1,207.1
			 M92.7,137.3c0.2-0.4,0.2-0.9,0.1-1.3c-0.4-0.2-1.1,0.1-1.1,0.6c0,0.5,0.5,1,1,0.8 M166.6,223.9c-0.5,0.4-0.1,1.4,0.6,1.3
			c0.2-0.5,0.3-1.1,0.2-1.6C167.2,223.3,166.6,223.6,166.6,223.9 M87.4,134.9c0.7-0.2,1.3-0.8,1.4-1.6
			C88,133.2,87.2,134.1,87.4,134.9 M126.5,201.7c0.8,0.1,1.5-1.1,0.9-1.7c-0.6,0.3-0.9,0.9-0.9,1.6 M142.8,206.6
			c-0.3-0.3-0.8-0.3-1.1,0c-0.1,0.4,0,0.9,0.1,1.3C142.4,207.9,142.9,207.2,142.8,206.6 M174.4,243.7c0.3,0.5,1.2,0.7,1.7,0.2
			c-0.2-0.4-0.4-0.7-0.8-0.9c-0.4-0.1-0.9,0.2-0.7,0.6 M190,146.3c-0.6-0.1-1.1,0.8-0.8,1.3c0.4-0.1,0.9-0.2,1.1-0.5
			C190.6,146.8,190.4,146.2,190,146.3 M158.2,221.7c0.5-0.5-0.1-1.6-0.8-1.5c-0.4,0.5,0.1,1.4,0.7,1.3 M105.9,158.4
			c-0.1,0.5,0.1,1,0.5,1.2c0.4-0.5,0.6-1,0.6-1.6C106.6,157.8,106,158,105.9,158.4 M170.5,110.3c0.5,0.1,0.9-0.5,0.7-1
			c-0.7,0-1.4,0.4-1.6,1c0.3,0.1,0.6,0.1,0.9,0.2 M141.7,189.8c-0.7-0.1-1.1,1-0.5,1.4c0.6,0,1.1-1.1,0.5-1.2 M155.1,191.4
			c0.1-0.3,0-0.6-0.1-0.9c-0.3-0.1-0.6,0-0.9,0.2C153.7,191.2,154.7,191.9,155.1,191.4 M174.1,254.9c-0.4-0.5-1-0.7-1.7-0.6
			c0.2,0.7,1.1,1.2,1.8,0.8 M89.2,135.3c-0.1,0.3,0,0.6,0.1,0.9c0.3-0.5,0.8-1,1.3-1.2C90.2,134.5,89.4,134.7,89.2,135.3
			 M176.1,257.7c0.3-0.2,0.2-0.8-0.2-0.9c-0.4,0.2-0.6,0.7-0.5,1.2C175.6,258.3,176.2,258,176.1,257.7 M144.6,177.6
			c0.2,0.3,0.8,0,0.8-0.4c0-0.4-0.3-0.7-0.6-0.9C144.6,176.7,144.5,177.2,144.6,177.6 M192.6,145.6c-0.4,0.2-0.4,0.9,0,1.1
			c0.3-0.3,0.6-0.6,0.9-0.9C193.2,145.6,192.9,145.5,192.6,145.6 M171,239.9c0.2-0.5-0.7-0.6-1.1-0.4
			C169.9,240,170.7,240.3,171,239.9 M125.1,154.4c-0.4-0.2-0.9,0-1.1,0.4C124.3,155.2,125,154.9,125.1,154.4 M164.5,217.4
			c0.2-0.2-0.1-0.5-0.4-0.4c-0.2,0.1-0.3,0.5-0.3,0.7C164,218.1,164.6,217.8,164.5,217.4 M181.2,262.2c0.2,0.4,1,0.2,1-0.3
			c-0.2-0.2-0.7-0.1-0.8,0.2 M171.6,235c0.3-0.3,0.3-0.8,0-1.1C171.3,234.2,171.3,234.7,171.6,235 M211.7,174.5
			c0.2-0.2-0.3-0.4-0.5-0.2C211.1,174.6,211.7,174.8,211.7,174.5 M174.5,239.4c-0.3,0.3-0.3,0.8,0,1.1
			C174.7,240.2,174.7,239.7,174.5,239.4 M167.6,240.8c0.2-0.2-0.2-0.7-0.4-0.5C166.9,240.4,167.3,241,167.6,240.8 M183,116.4
			c0,0.6,1,0.6,1.1,0.1C184.1,115.9,183.1,115.9,183,116.4 M91.4,146.5c-0.4-0.1-0.4,0.6-0.2,1C91.3,147.1,91.3,146.8,91.4,146.5
			 M164.2,252.6c-0.2,0.2,0.1,0.5,0.3,0.4C164.7,252.8,164.4,252.4,164.2,252.6 M162.8,245.1c0.2-0.2-0.2-0.5-0.4-0.3
			C162.3,245,162.7,245.3,162.8,245.1 M174.8,234.7L174.8,234.7 M178.3,251.9L178.3,251.9 M146,197.5L146,197.5 M86.1,140.9
			L86.1,140.9 M217.2,171.3L217.2,171.3 M88.5,138.9"/>
	</g>
</g>
<g id="Layer_2" class="st0">
	<line class="st3" x1="64.2" y1="155" x2="265.6" y2="38.3"/>
	<line class="st4" x1="59.8" y1="155" x2="263.8" y2="136.5"/>
	<line class="st4" x1="60.3" y1="187.4" x2="263.8" y2="139.9"/>
	<line class="st4" x1="64.3" y1="204.4" x2="263.8" y2="141.2"/>
	<line class="st4" x1="61.2" y1="257.5" x2="263.8" y2="143"/>
	<g class="st1">
		<circle class="st5" cx="526.7" cy="100.5" r="120"/>
		<circle class="st6" cx="526.7" cy="100.5" r="114.6"/>
	</g>
	<text transform="matrix(1 0 0 1 543.8574 166.2246)" class="st1"><tspan x="0" y="0" class="st7" style="font-family:'BigCaslon-Medium'; font-size:9.9445px;">communication</tspan><tspan x="36.4" y="9.9" class="st7" style="font-family:'BigCaslon-Medium'; font-size:9.9445px;">design</tspan></text>
	<path class="st8" d="M502.8,105.4c-7.3,0-13.2,15.1-13.2,33.8c0,18.7,5.9,33.8,13.2,33.8c7.3,0,13.3-15.2,13.3-33.8
		C516.1,120.5,510.1,105.4,502.8,105.4z M502.8,153.7c-2.8,0-5.1-8.1-5.1-18.1c0-10,2.3-18.1,5.1-18.1c2.8,0,5.1,8.1,5.1,18.1
		C507.9,145.6,505.6,153.7,502.8,153.7z"/>
	<path class="st9" d="M444.6,109.5c-0.4-8.1-0.8-16.3-1.1-24.4"/>
	<path class="st9" d="M444.6,110.4c0-0.3,0-0.6,0-0.9"/>
	<path class="st10" d="M434.2,114.3l-0.9-0.2c-0.6,0.9-1,1.9-1.2,3c-1.1,5.3,3.4,10.8,8.8,11.1C443.8,123,440.1,115.4,434.2,114.3z
		 M434.6,122c-0.5-0.3-0.8-1-0.6-1.5l0,0c0.1-0.5,0.9-0.8,1.3-0.5C435.3,120.7,435,121.4,434.6,122z"/>
	<polyline class="st11" points="444.6,110 465.5,108.3 465.5,134.9 470.5,133.8 470.5,108.3 484.5,107.1 484.5,182.7 470.5,190.5 
		470.5,149.9 465.5,150.8 465.5,192.5 443.5,205.7 443.5,114.5 	"/>
	<path class="st11" d="M443.7,114.3c-3-1.6-6.6-1.1-9.3,0.1l-0.9-0.3c2.4-3.7,7.3-6.1,11.1-4.1h0.4"/>
	<path class="st8" d="M435.3,120c0,0.7-0.3,1.5-0.7,2c-0.5-0.3-0.8-1-0.6-1.5l0,0C434.2,120,434.9,119.7,435.3,120z"/>
	<path class="st12" d="M435.3,120c0,0.7-0.3,1.5-0.7,2c-0.5-0.3-0.8-1-0.6-1.5l0,0C434.2,120,434.9,119.7,435.3,120z"/>
	<path class="st11" d="M546.5,116.9V148l-6,3.1v-5.7c-2,6.7-5.1,11-9,11c-7.3,0-12.9-15.2-12.9-33.8c0-7,1-13.6,2.5-19l8.9-0.9
		c-1.8,2.9-2.9,9.1-2.9,16.4c0,10,2.3,18.1,5.2,18.1c2.8,0,5.1-8.1,5.1-18.1c0-7.6-1.3-14.1-3.2-16.8l8.4-0.9c1.4,4.5,2,10,2.4,16
		L546.5,116.9z"/>
	<path class="st13" d="M611.3-14.1l-0.3,0.8c-2.6,1.5-5.4,4.4-5.6,7.2l0,0l-3.5,102.4c0,0,0-0.2,0-0.2h-13.2c0,0,0,0.2,0,0.2
		l0.8-45.9c0,0,0,0-0.1,0L585.1,65c0,0,0,0,0,0l-5.8,0c0,0,0,0,0,0l-1.7-16c0,0,0,0-0.1,0l-11.7,51.1c0,0,0,0,0,0l-15.8,1.8
		c0,0,0,0,0,0L573,5.6c0,0,0,0,0,0l14.8-8.9c0,0,0,0,0,0l1.3,20.1c0,0,0,0,0.1,0l9.9-25.3C599.1-8.6,609.4-14.3,611.3-14.1z"/>
	<path class="st8" d="M545.7,23.2c-10.5,0-19,17.3-19,38.6s8.5,38.6,19,38.6c10.5,0,19-17.3,19-38.6S556.1,23.2,545.7,23.2z
		 M545.7,78.4c-4.1,0-7.3-9.2-7.3-20.6c0-11.4,3.3-20.6,7.3-20.6c4.1,0,7.3,9.2,7.3,20.6C553,69.1,549.7,78.4,545.7,78.4z"/>
	<polygon class="st13" points="461.5,70.9 461.5,89.6 478.4,82 475.9,107 506,104.8 505.2,73.1 532,62.1 533.5,29 	"/>
	<polygon class="st13" points="583.5,104.9 583.5,109.1 591.5,108.1 591.5,111.8 583.5,114.8 583.5,118.9 598.5,112.7 598.5,118.6 
		581.5,128.4 581.5,128.4 578.5,129.8 578.5,97.7 578.5,97.7 578.5,97.1 598.5,96.4 598.5,102.2 	"/>
	<g class="st1">
		<path class="st14" d="M493.3,109.5C493.3,109.5,493.4,109.5,493.3,109.5c17.1-4.8-2-16.8-1.2-1.5c0,0-0.1,0-0.1,0c0,0,0,0,0,0
			c-1.7-9.9-10.1,3.3-4.9,3.5c-11,5.6,5.3,15.3,4.8-0.7c0,0,0.1,0,0.1,0c0.1,0,0.3,0,0.4-0.1C494.3,128,511.6,105.9,493.3,109.5z"/>
		<g>
			<path class="st15" d="M492.1,109.6C490,92.8,510.3,105.3,492.1,109.6C488.5,110.4,495.4,107.8,492.1,109.6
				C478.9,117,491.1,95.3,492.1,109.6C493.5,127.4,473.5,114,492.1,109.6C510.8,105.2,493.5,127.4,492.1,109.6L492.1,109.6
				C492.1,109.1,492.2,110,492.1,109.6z M492.1,109.6C492.7,116.9,499,108,492.1,109.6C485.3,111.2,492.7,116.9,492.1,109.6
				C491.6,102.3,485.3,111.2,492.1,109.6C498.6,108.1,491,103.1,492.1,109.6C492.2,109.9,492.1,109.2,492.1,109.6L492.1,109.6z"/>
		</g>
	</g>
	<g class="st1">
		<path class="st16" d="M567.6,125.1c0,2.8-1.5,5.2-3.8,6.5c-0.2,0.1-0.4,0.2-0.6,0.3c-1.3-0.6-2.4-1.5-3.2-2.7
			c-0.3-0.4-0.5-0.8-0.7-1.3c1.3-2.3,4-3.9,6.9-3.9c0.4,0,0.8,0,1.2,0.1C567.5,124.5,567.6,124.8,567.6,125.1z"/>
		<path class="st16" d="M568.8,125.1c0,3,0,8-4.4,6.8c-0.2-0.1-0.4-0.2-0.6-0.3c2.3-1.3,3.8-3.7,3.8-6.5c0-0.3,0-0.6-0.1-0.9
			c-0.2-1.7-0.9-3.1-2-4.3c-1.2-0.1-2.4-0.5-3.4-1.1c-2,1.4-3.3,3.7-3.3,6.3c0,1,0.2,2,0.6,2.8c0.2,0.4,0.4,0.9,0.7,1.3
			c-0.2,0.7-0.4,1.5-0.4,2.2c0,0.3,0,0.7,0.1,1c-3.4-0.7-5.9-3.8-5.9-7.3c0-4.2,3.4-7.5,7.5-7.5c0.1,0,0.3,0,0.4,0
			c0.5,0.5,1,0.9,1.6,1.2c1,0.6,2.2,1,3.4,1.1c1.1,1.1,1.8,2.6,2,4.3C568.8,124.5,568.8,124.8,568.8,125.1z"/>
		<path class="st16" d="M567.5,124.2c-0.4-0.1-0.8-0.1-1.2-0.1c-3,0-5.6,1.6-6.9,3.9c-0.4-0.9-0.6-1.8-0.6-2.8
			c0-2.6,1.3-4.9,3.3-6.3c1,0.6,2.2,1,3.4,1.1C566.6,121,567.3,122.5,567.5,124.2z"/>
	</g>
	<g class="st1">
		<path class="st17" d="M566.4,104.9c0,0,1-4.1,4.4-6.6"/>
		<g>
			
				<ellipse transform="matrix(0.8239 -0.5667 0.5667 0.8239 44.7574 340.76)" class="st18" cx="570.8" cy="98.4" rx="1.2" ry="1.2"/>
			<path class="st19" d="M571.5,99.4c-0.6,0.4-1.4,0.3-1.8-0.3c-0.4-0.6-0.3-1.4,0.3-1.8c0.6-0.4,1.4-0.3,1.8,0.3
				C572.3,98.2,572.1,99,571.5,99.4C570.9,99.9,572.1,99,571.5,99.4z"/>
		</g>
	</g>
	<path class="st8" d="M556.8,125.4c-5.4,9.3,10.9,14.9,16,7.3c3.6-5.4,1.9-14.7-4.4-17.3c-2.2-1-9.9-4.4-7.8-7.8
		c2.4-3.8,5.3,3.2,6.3,3.6c0.6,0.2,3.1-0.6,3.7-0.8c1.3-0.6,1.6-0.9,1.4-2.8c-0.8-7.6-13.2-6.8-16.6-1.8c-4.7,6.8,4.2,11.4,8.6,14.9
		C571.3,126.5,558.4,129.3,556.8,125.4C556.2,126.5,557.5,127.2,556.8,125.4z"/>
	<path class="st12" d="M521.8,154.4c0-0.2,0-0.3-0.1-0.5c10.8-3.5-0.8-12.2-3-2.6c-0.1,0-0.2,0-0.3,0c-0.1,0-0.2,0-0.4,0
		c-2.2-8.7-13.6,3.6-3,3.7c0,0.2,0,0.3,0.1,0.5c-10.8,3.5,0.8,12.2,3,2.6c0.1,0,0.2,0,0.3,0c0.1,0,0.2,0,0.4,0
		C521,166.8,532.4,154.6,521.8,154.4z"/>
	<g class="st1">
		<path class="st15" d="M518.9,154.6C501.2,157.4,518.9,170.6,518.9,154.6C518.9,138.6,501.2,157.4,518.9,154.6
			C536.5,151.8,518.9,138.6,518.9,154.6C518.9,170.6,536.5,151.8,518.9,154.6z M518.9,154.6C514.1,155.4,518.9,149.9,518.9,154.6
			C518.9,159.3,514.1,155.4,518.9,154.6C523.7,153.8,518.9,159.3,518.9,154.6C518.9,149.9,523.7,153.8,518.9,154.6z"/>
	</g>
	<line class="st20" x1="611.7" y1="52.8" x2="644.5" y2="38"/>
	<line class="st20" x1="611.7" y1="67.7" x2="644.5" y2="52.8"/>
	<line class="st20" x1="611.7" y1="60.2" x2="644.5" y2="45.4"/>
	<g class="st1">
		<path class="st17" d="M558.9,104.9c0,0,1-4.1,4.4-6.6"/>
		<g>
			
				<ellipse transform="matrix(0.8239 -0.5667 0.5667 0.8239 43.4442 336.5334)" class="st18" cx="563.3" cy="98.4" rx="1.2" ry="1.2"/>
			<path class="st19" d="M564.1,99.4c-0.6,0.4-1.4,0.3-1.8-0.3c-0.4-0.6-0.3-1.4,0.3-1.8c0.6-0.4,1.4-0.3,1.8,0.3
				C564.8,98.2,564.7,99,564.1,99.4C563.5,99.9,564.7,99,564.1,99.4z"/>
		</g>
	</g>
	<path class="st10" d="M618,0.4c2.9-4.5,1.2-11.4-3.6-13.7c-1-0.5-2-0.7-3.1-0.8l-0.3,0.8C608.2-8,612.1-0.5,618,0.4z M614.8-9
		c0-0.5,0.7-0.9,1.2-0.8l0,0c0.6,0.2,0.9,0.8,0.9,1.4C616.1-8.4,615.4-8.6,614.8-9z"/>
	<g class="st1">
		<path class="st21" d="M-16,134.6c0,19.2-3.9,37.9-10.9,53.9h-257.3c-7-16-10.9-34.7-10.9-53.9c0-24.8,6.5-48.1,17.9-68.1h243.4
			C-22.5,86.5-16,109.8-16,134.6z"/>
		<path class="st22" d="M-33.8,66.5h-243.4c23.9-42,69.5-71.2,121.7-71.2C-103.3-4.7-57.8,24.5-33.8,66.5z"/>
		<path class="st22" d="M-26.9,188.5c-21.2,52-70.8,85.4-128.7,85.4c-57.9,0-107.5-33.4-128.6-85.4H-26.9z"/>
	</g>
	<path class="st23" d="M-33.8,68.2C-57.8,26.5-103.3-3-155.5-3c-52.2,0-97.8,29.5-121.7,71.2c-11.4,20.3-17.9,43.7-17.9,68.5
		c0,19.2,3.9,38.3,10.9,54.3c21.2,51.3,70.8,85.4,128.6,85.4c57.9,0,107.5-34.1,128.7-85.4c7-16,10.9-35.1,10.9-54.3
		C-16,111.9-22.5,88.5-33.8,68.2z"/>
	<path class="st24" d="M-40.8,72.1C-63.4,32.8-106.3,5-155.5,5c-49.2,0-92.2,27.8-114.7,67.1c-10.7,19.1-16.9,41.2-16.9,64.6
		c0,18.1,3.7,36.1,10.3,51.2c19.9,48.3,66.7,80.5,121.3,80.5c54.5,0,101.3-32.1,121.3-80.5c6.6-15.1,10.3-33.1,10.3-51.2
		C-24,113.3-30.1,91.2-40.8,72.1z"/>
</g>
<g id="Layer_4">
</g>
<g id="Layer_3">
	<path class="st25" d="M327.7,163.6l-134.1,66.6c-7,3.5-15.2,3.6-22.3,0.3L26.5,163.6l141.3-77.8c9.1-5,20.2-4.8,29.2,0.5
		L327.7,163.6z"/>
	<path class="st26" d="M327.7,163.6l-134.1,66.6c-7,3.5-15.2,3.6-22.3,0.3L26.5,163.6l141.3-77.8c9.1-5,20.2-4.8,29.2,0.5
		L327.7,163.6z"/>
	<g>
		<g>
			<path class="st27" d="M255.1,152.6c2,0.9,3.3,2.8,3.4,4.9c0,0.2,0,0.4,0,0.5c-0.9,0.7-1.9,1.2-3,1.4c-0.4,0.1-0.8,0.1-1.1,0.1
				c-1.2-1.7-1.5-4.1-0.5-6.3c0.1-0.3,0.3-0.6,0.5-0.9C254.6,152.5,254.8,152.5,255.1,152.6z"/>
			<path class="st27" d="M254.4,152.4c-0.2,0.3-0.3,0.6-0.5,0.9c-1,2.2-0.7,4.6,0.5,6.3c-0.7,0-1.5-0.2-2.2-0.5
				c-1.9-0.9-3.1-2.6-3.4-4.5c0.8-0.5,1.4-1.2,1.9-2.1C251.8,152,253.1,152,254.4,152.4z"/>
			<path class="st27" d="M254.1,148.2c2.2-0.4,4.3,0.4,5.6,2c0.1,0.1,0.2,0.3,0.3,0.4c-0.3,1.1-0.9,2.1-1.7,2.9
				c-0.3,0.3-0.6,0.5-0.9,0.7c-2-0.7-3.6-2.5-4-4.9c-0.1-0.3-0.1-0.7-0.1-1C253.7,148.3,253.9,148.2,254.1,148.2z"/>
			<path class="st27" d="M253.4,148.4c0,0.3,0,0.7,0.1,1c0.4,2.3,2,4.1,4,4.9c-0.6,0.4-1.3,0.7-2.1,0.8c-2,0.4-4-0.3-5.4-1.7
				c0.3-0.9,0.4-1.8,0.3-2.8C251.1,149.5,252.2,148.8,253.4,148.4z"/>
			<path class="st27" d="M251.2,145.3c1.6-1.5,3.9-1.9,5.9-1.2c0.2,0.1,0.3,0.1,0.5,0.2c0.3,1.1,0.4,2.2,0.1,3.3
				c-0.1,0.4-0.2,0.7-0.4,1.1c-2.1,0.4-4.4-0.3-5.9-2.1c-0.2-0.3-0.4-0.5-0.6-0.8C250.9,145.6,251.1,145.4,251.2,145.3z"/>
			<path class="st27" d="M250.7,145.8c0.2,0.3,0.4,0.5,0.6,0.8c1.6,1.8,3.9,2.5,5.9,2.1c-0.3,0.7-0.8,1.3-1.4,1.8
				c-1.5,1.4-3.6,1.8-5.5,1.3c-0.2-0.9-0.6-1.8-1.2-2.6C249.4,148,249.8,146.8,250.7,145.8z"/>
		</g>
		<g>
			<circle class="st28" cx="207.1" cy="164.1" r="14.1"/>
			<circle class="st28" cx="207.1" cy="166.6" r="8.5"/>
			<circle class="st28" cx="210.5" cy="168.5" r="4.4"/>
			<g>
				<g>
					<path class="st29" d="M115.7,177.9v-4.8h2.8c0.3,0,0.5-0.2,0.5-0.5v-8.2c0-0.3-0.2-0.5-0.5-0.5h-14.4c-0.3,0-0.5,0.2-0.5,0.5
						v8.2c0,0.3,0.2,0.5,0.5,0.5h2.9v4.8H94.3v-4.8h2.8c0.3,0,0.5-0.2,0.5-0.5v-20.4c0-0.3-0.2-0.5-0.5-0.5h-2.8v-4.8H107v4.8h-2.9
						c-0.3,0-0.5,0.2-0.5,0.5v6.6c0,0.3,0.2,0.5,0.5,0.5h14.4c0.3,0,0.5-0.2,0.5-0.5v-6.6c0-0.3-0.2-0.5-0.5-0.5h-2.8v-4.8h12.7v4.8
						h-2.9c-0.3,0-0.5,0.2-0.5,0.5v20.4c0,0.3,0.2,0.5,0.5,0.5h2.9v4.8H115.7z"/>
					<path class="st19" d="M127.9,147.4v3.8h-2.4c-0.6,0-1,0.4-1,1v20.4c0,0.6,0.4,1,1,1h2.4v3.8h-11.7v-3.8h2.3c0.6,0,1-0.4,1-1
						v-8.2c0-0.6-0.4-1-1-1h-14.4c-0.6,0-1,0.4-1,1v8.2c0,0.6,0.4,1,1,1h2.4v3.8H94.8v-3.8h2.3c0.6,0,1-0.4,1-1v-20.4
						c0-0.6-0.4-1-1-1h-2.3v-3.8h11.7v3.8h-2.4c-0.6,0-1,0.4-1,1v6.6c0,0.6,0.4,1,1,1h14.4c0.6,0,1-0.4,1-1v-6.6c0-0.6-0.4-1-1-1
						h-2.3v-3.8H127.9 M128.9,146.4h-13.7v5.8h3.3v6.6h-14.4v-6.6h3.4v-5.8H93.8v5.8h3.3v20.4h-3.3v5.8h13.7v-5.8h-3.4v-8.2h14.4
						v8.2h-3.3v5.8h13.7v-5.8h-3.4v-20.4h3.4V146.4L128.9,146.4z"/>
				</g>
				<g>
					<path class="st29" d="M148.2,178.4c-1.4,0-2.7-0.2-4-0.6c-1.3-0.4-2.5-0.9-3.6-1.6s-2.1-1.5-3-2.5c-0.9-1-1.7-2.1-2.3-3.2
						s-1.1-2.5-1.5-3.8c-0.4-1.4-0.5-2.8-0.5-4.3s0.2-2.9,0.5-4.3c0.4-1.4,0.9-2.7,1.5-3.9c0.6-1.2,1.4-2.3,2.3-3.2
						c0.9-1,1.9-1.8,3-2.5c1.1-0.7,2.3-1.2,3.6-1.6c1.3-0.4,2.6-0.6,4-0.6s2.7,0.2,4,0.6c1.3,0.4,2.5,0.9,3.6,1.6
						c1.1,0.7,2.1,1.5,3,2.5c0.9,1,1.7,2.1,2.3,3.2c0.6,1.2,1.2,2.5,1.5,3.9c0.4,1.4,0.5,2.8,0.5,4.3c0,1.5-0.2,2.9-0.5,4.3
						c-0.4,1.4-0.9,2.7-1.5,3.9c-0.6,1.2-1.4,2.3-2.3,3.3c-0.9,1-1.9,1.8-3,2.5c-1.1,0.7-2.3,1.2-3.6,1.6
						C150.9,178.2,149.5,178.4,148.2,178.4z M148.2,151.9c-1.3,0-2.5,0.3-3.6,0.8c-1.1,0.6-2,1.3-2.8,2.3c-0.8,0.9-1.4,2.1-1.8,3.3
						c-0.4,1.3-0.6,2.6-0.6,4c0,1.4,0.2,2.7,0.6,4c0.4,1.3,1,2.4,1.8,3.3c0.8,1,1.7,1.7,2.8,2.3c1.1,0.6,2.3,0.8,3.6,0.8
						c1.3,0,2.5-0.3,3.6-0.8c1.1-0.6,2-1.3,2.8-2.3c0.8-1,1.4-2.1,1.8-3.3c0.4-1.2,0.6-2.6,0.6-4c0-1.4-0.2-2.8-0.6-4
						c-0.4-1.3-1-2.4-1.8-3.3c-0.8-1-1.7-1.7-2.8-2.3C150.6,152.2,149.4,151.9,148.2,151.9z"/>
					<path class="st19" d="M148.2,146.8c1.3,0,2.7,0.2,3.9,0.5c1.2,0.4,2.4,0.9,3.5,1.6c1.1,0.7,2,1.5,2.9,2.4
						c0.9,0.9,1.6,2,2.3,3.1c0.6,1.2,1.1,2.4,1.5,3.7c0.3,1.3,0.5,2.7,0.5,4.2c0,1.4-0.2,2.8-0.5,4.1c-0.3,1.3-0.8,2.6-1.5,3.7
						c-0.6,1.2-1.4,2.2-2.3,3.1c-0.9,0.9-1.9,1.7-2.9,2.4c-1.1,0.7-2.2,1.2-3.5,1.6c-1.2,0.4-2.5,0.5-3.9,0.5
						c-1.3,0-2.6-0.2-3.9-0.5c-1.2-0.4-2.4-0.9-3.5-1.6c-1.1-0.7-2-1.5-2.9-2.4c-0.9-0.9-1.6-2-2.2-3.1c-0.6-1.2-1.1-2.4-1.5-3.7
						c-0.3-1.3-0.5-2.7-0.5-4.2c0-1.4,0.2-2.8,0.5-4.2c0.3-1.3,0.8-2.6,1.5-3.7c0.6-1.2,1.4-2.2,2.2-3.1c0.9-0.9,1.9-1.8,2.9-2.4
						c1.1-0.7,2.2-1.2,3.5-1.6C145.5,147,146.8,146.8,148.2,146.8 M148.2,173.3c1.4,0,2.7-0.3,3.8-0.9c1.1-0.6,2.1-1.4,2.9-2.4
						c0.8-1,1.4-2.2,1.9-3.5c0.4-1.3,0.7-2.7,0.7-4.1c0-1.5-0.2-2.9-0.7-4.2c-0.4-1.3-1.1-2.5-1.9-3.5c-0.8-1-1.8-1.8-2.9-2.4
						c-1.2-0.6-2.4-0.9-3.8-0.9c-1.4,0-2.6,0.3-3.8,0.9c-1.1,0.6-2.1,1.4-2.9,2.4c-0.8,1-1.4,2.2-1.9,3.5c-0.4,1.3-0.7,2.7-0.7,4.2
						c0,1.5,0.2,2.9,0.7,4.2c0.5,1.3,1.1,2.5,1.9,3.5c0.8,1,1.8,1.8,2.9,2.4C145.5,173,146.8,173.3,148.2,173.3 M148.2,145.8
						c-1.4,0-2.8,0.2-4.2,0.6c-1.3,0.4-2.6,0.9-3.7,1.7c-1.1,0.7-2.2,1.6-3.1,2.6c-0.9,1-1.7,2.1-2.4,3.4c-0.7,1.2-1.2,2.6-1.5,4
						c-0.4,1.4-0.5,2.9-0.5,4.4c0,1.5,0.2,3,0.5,4.4c0.4,1.4,0.9,2.7,1.5,4c0.7,1.2,1.5,2.3,2.4,3.4c0.9,1,2,1.9,3.1,2.6
						c1.1,0.7,2.4,1.3,3.7,1.7c1.3,0.4,2.7,0.6,4.2,0.6c1.4,0,2.8-0.2,4.2-0.6c1.3-0.4,2.6-0.9,3.7-1.7c1.1-0.7,2.2-1.6,3.1-2.6
						c0.9-1,1.7-2.1,2.4-3.4c0.7-1.2,1.2-2.6,1.5-4c0.4-1.4,0.5-2.9,0.5-4.4c0-1.5-0.2-3-0.5-4.4c-0.4-1.4-0.9-2.7-1.5-4
						c-0.7-1.2-1.5-2.3-2.4-3.4c-0.9-1-2-1.9-3.1-2.6c-1.1-0.7-2.4-1.3-3.7-1.7C151,146,149.6,145.8,148.2,145.8L148.2,145.8z
						 M148.2,172.3c-1.2,0-2.3-0.3-3.3-0.8s-1.9-1.2-2.6-2.2c-0.7-0.9-1.3-2-1.7-3.2s-0.6-2.5-0.6-3.8c0-1.4,0.2-2.7,0.6-3.9
						c0.4-1.2,1-2.3,1.7-3.2c0.7-0.9,1.6-1.6,2.6-2.2c1-0.5,2.1-0.8,3.3-0.8c1.2,0,2.3,0.3,3.3,0.8c1,0.5,1.9,1.2,2.6,2.2
						c0.7,0.9,1.3,2,1.7,3.2c0.4,1.2,0.6,2.5,0.6,3.9c0,1.3-0.2,2.6-0.6,3.8s-1,2.3-1.7,3.2c-0.7,0.9-1.6,1.6-2.6,2.2
						C150.5,172,149.4,172.3,148.2,172.3L148.2,172.3z"/>
				</g>
				<g>
					<path class="st29" d="M181.8,178.3c-1.7,0-3.2-0.3-4.7-0.9c-1.4-0.6-2.7-1.5-3.8-2.6c-1.1-1.1-1.9-2.5-2.5-4.2
						c-0.6-1.6-0.9-3.5-0.9-5.6v-12.8c0-0.3-0.2-0.5-0.5-0.5H167v-4.8h11.8v4.8h-2.4c-0.3,0-0.5,0.2-0.5,0.5v13.3
						c0,1.3,0.1,2.3,0.4,3.2c0.3,0.9,0.7,1.7,1.3,2.3c0.5,0.6,1.2,1,1.9,1.3c0.7,0.3,1.5,0.4,2.4,0.4c0.9,0,1.7-0.1,2.4-0.3
						c0.8-0.2,1.4-0.6,2-1.2c0.5-0.6,1-1.3,1.2-2.3c0.3-0.9,0.4-2,0.4-3.4v-13.3c0-0.3-0.2-0.5-0.5-0.5h-2.9v-4.8h11.8v4.8h-2.1
						c-0.3,0-0.5,0.2-0.5,0.5v12.4c0,2.2-0.3,4.1-0.9,5.8c-0.6,1.7-1.5,3.1-2.6,4.3c-1.1,1.2-2.4,2-3.8,2.6
						C185.1,178,183.5,178.3,181.8,178.3z"/>
					<path class="st19" d="M195.9,147.4v3.8h-1.6c-0.6,0-1,0.4-1,1v12.4c0,2.1-0.3,4-0.9,5.7c-0.6,1.6-1.4,3-2.5,4.1
						c-1,1.1-2.3,1.9-3.6,2.5c-1.4,0.6-2.9,0.9-4.5,0.9c-1.6,0-3.1-0.3-4.5-0.9c-1.4-0.6-2.6-1.4-3.6-2.5c-1-1.1-1.8-2.4-2.4-4
						c-0.6-1.6-0.9-3.4-0.9-5.4v-12.8c0-0.6-0.4-1-1-1h-1.9v-3.8h10.8v3.8h-1.9c-0.6,0-1,0.4-1,1v13.3c0,1.3,0.2,2.4,0.5,3.4
						c0.3,1,0.8,1.8,1.4,2.4c0.6,0.7,1.3,1.1,2.1,1.4c0.8,0.3,1.6,0.4,2.6,0.4c0.9,0,1.8-0.1,2.6-0.4c0.8-0.3,1.6-0.7,2.2-1.4
						c0.6-0.6,1-1.4,1.3-2.5c0.3-0.9,0.4-2.1,0.4-3.5v-13.3c0-0.6-0.4-1-1-1h-2.4v-3.8H195.9 M196.9,146.4h-12.8v5.8h3.4v13.3
						c0,1.3-0.1,2.4-0.4,3.2s-0.6,1.5-1.1,2.1c-0.5,0.5-1.1,0.9-1.8,1.1c-0.7,0.2-1.4,0.3-2.3,0.3c-0.8,0-1.5-0.1-2.2-0.4
						c-0.7-0.2-1.3-0.6-1.8-1.2c-0.5-0.5-0.9-1.2-1.1-2.1c-0.3-0.8-0.4-1.9-0.4-3.1v-13.3h2.9v-5.8h-12.8v5.8h2.9V165
						c0,2.2,0.3,4.1,1,5.8c0.6,1.7,1.5,3.1,2.6,4.3c1.1,1.2,2.4,2.1,3.9,2.7c1.5,0.6,3.1,0.9,4.9,0.9c1.7,0,3.4-0.3,4.9-0.9
						c1.5-0.6,2.9-1.6,4-2.8c1.1-1.2,2-2.7,2.7-4.4c0.6-1.7,1-3.7,1-6v-12.4h2.6V146.4L196.9,146.4z"/>
				</g>
				<g>
					<path class="st29" d="M211.8,178.5c-1.2,0-2.3-0.1-3.3-0.4c-1-0.3-2-0.6-2.9-1.1c-0.9-0.5-1.6-1.1-2.2-1.8
						c-0.6-0.7-1.1-1.5-1.5-2.3c-0.1-0.2-0.3-0.3-0.5-0.3h-0.8l5.8-4.8v0.2c0,0.7,0.1,1.3,0.3,1.9c0.2,0.6,0.6,1.1,1,1.6
						c0.5,0.4,1,0.8,1.7,1c0.7,0.2,1.5,0.4,2.3,0.4c1.4,0,2.5-0.3,3.2-1c0.8-0.7,1.2-1.6,1.2-2.8c0-0.6-0.1-1.2-0.4-1.6
						c-0.3-0.4-0.6-0.8-1-1c-0.4-0.3-0.8-0.5-1.3-0.7c-0.5-0.2-0.9-0.3-1.3-0.5l-4.8-1.6c-0.9-0.3-1.7-0.7-2.5-1.1
						c-0.8-0.5-1.5-1.1-2.1-1.8c-0.6-0.7-1.1-1.6-1.5-2.5c-0.4-1-0.5-2.1-0.5-3.3c0-1.4,0.3-2.7,0.8-3.8s1.3-2.1,2.2-2.8
						c1-0.8,2.1-1.4,3.4-1.8c1.3-0.4,2.8-0.6,4.4-0.6c1.3,0,2.4,0.1,3.5,0.4c1.1,0.3,2,0.7,2.9,1.2c0.8,0.5,1.5,1,2.1,1.6
						c0.5,0.5,0.9,1,1.1,1.6l-4.6,3.8c-0.1-0.3-0.2-0.5-0.4-0.8c-0.3-0.5-0.7-0.9-1.2-1.3c-0.5-0.3-1-0.6-1.6-0.8
						c-0.6-0.2-1.2-0.3-1.9-0.3c-0.6,0-1.1,0.1-1.6,0.2c-0.5,0.1-1,0.3-1.4,0.6c-0.4,0.3-0.7,0.6-1,1.1c-0.2,0.4-0.4,1-0.4,1.6
						c0,0.7,0.2,1.3,0.5,1.8c0.3,0.4,0.7,0.8,1.2,1.1c0.5,0.3,1,0.5,1.5,0.6c0.5,0.1,1,0.3,1.5,0.5l5.8,1.9c0.7,0.3,1.5,0.6,2.1,1.1
						c0.7,0.5,1.2,1,1.7,1.7s0.9,1.4,1.1,2.3c0.3,0.9,0.4,1.8,0.4,2.9c0,1.5-0.3,2.8-0.8,4c-0.5,1.2-1.3,2.3-2.3,3.1
						c-1,0.9-2.2,1.5-3.5,2C215,178.3,213.5,178.5,211.8,178.5z"/>
					<path class="st19" d="M211.4,146.4c1.2,0,2.3,0.1,3.4,0.4c1,0.3,1.9,0.7,2.7,1.1c0.8,0.5,1.5,1,2,1.6c0.3,0.4,0.6,0.7,0.9,1.1
						l-3.8,3.1c0-0.1-0.1-0.2-0.1-0.2c-0.3-0.5-0.8-1-1.3-1.4c-0.5-0.4-1.1-0.7-1.7-0.9c-0.6-0.2-1.3-0.3-2-0.3
						c-0.6,0-1.2,0.1-1.7,0.2c-0.6,0.1-1.1,0.4-1.5,0.7c-0.5,0.3-0.9,0.7-1.1,1.2c-0.3,0.5-0.4,1.1-0.4,1.8c0,0.8,0.2,1.6,0.6,2.1
						c0.4,0.5,0.8,0.9,1.4,1.2c0.5,0.3,1.1,0.5,1.6,0.7c0.5,0.1,1,0.3,1.5,0.4l5.8,1.9c0.7,0.2,1.4,0.6,2,1c0.6,0.4,1.1,1,1.6,1.6
						c0.4,0.6,0.8,1.3,1.1,2.1c0.3,0.8,0.4,1.7,0.4,2.8c0,1.4-0.3,2.7-0.8,3.8c-0.5,1.1-1.2,2.1-2.1,2.9c-0.9,0.8-2.1,1.5-3.4,1.9
						c-1.3,0.5-2.8,0.7-4.4,0.7c-1.1,0-2.2-0.1-3.2-0.4c-1-0.3-1.9-0.6-2.7-1.1c-0.8-0.5-1.5-1-2.1-1.7c-0.6-0.6-1.1-1.4-1.4-2.2
						c-0.1-0.2-0.3-0.4-0.5-0.5l4-3.4c0.1,0.5,0.2,0.9,0.3,1.3c0.3,0.7,0.6,1.3,1.2,1.8c0.5,0.5,1.1,0.9,1.9,1.1
						c0.7,0.3,1.6,0.4,2.5,0.4c1.5,0,2.7-0.4,3.6-1.1c0.9-0.8,1.3-1.9,1.3-3.2c0-0.7-0.2-1.4-0.5-1.9c-0.3-0.5-0.7-0.9-1.2-1.2
						c-0.4-0.3-0.9-0.5-1.4-0.7c-0.5-0.2-0.9-0.3-1.4-0.5l-4.8-1.6c-0.8-0.3-1.7-0.6-2.4-1.1c-0.8-0.4-1.4-1-2-1.7
						c-0.6-0.7-1-1.5-1.4-2.4c-0.3-0.9-0.5-2-0.5-3.1c0-1.4,0.3-2.6,0.7-3.6c0.5-1,1.2-1.9,2.1-2.7c0.9-0.7,2-1.3,3.3-1.7
						C208.4,146.6,209.9,146.4,211.4,146.4 M211.4,145.4c-1.7,0-3.2,0.2-4.6,0.6c-1.4,0.4-2.6,1-3.6,1.9c-1,0.8-1.8,1.8-2.4,3
						c-0.6,1.2-0.8,2.5-0.8,4.1c0,1.3,0.2,2.5,0.6,3.5c0.4,1,0.9,1.9,1.6,2.7c0.7,0.8,1.4,1.4,2.3,1.9c0.9,0.5,1.7,0.9,2.6,1.2
						l4.8,1.6c0.4,0.1,0.9,0.3,1.3,0.5c0.4,0.2,0.9,0.4,1.2,0.6s0.7,0.5,0.9,0.9c0.2,0.4,0.3,0.8,0.3,1.3c0,1-0.3,1.9-1,2.4
						c-0.7,0.6-1.6,0.9-2.9,0.9c-0.8,0-1.6-0.1-2.2-0.3c-0.6-0.2-1.1-0.5-1.5-0.9c-0.4-0.4-0.7-0.9-0.9-1.4
						c-0.2-0.5-0.3-1.1-0.3-1.7v-1.3l-7.6,6.3h2.2c0.4,0.9,0.9,1.7,1.6,2.5c0.7,0.7,1.5,1.3,2.4,1.9c0.9,0.5,1.9,0.9,3,1.2
						c1.1,0.3,2.2,0.4,3.5,0.4c1.7,0,3.3-0.3,4.8-0.8c1.4-0.5,2.7-1.2,3.7-2.1c1-0.9,1.8-2,2.4-3.3c0.6-1.3,0.9-2.7,0.9-4.2
						c0-1.1-0.1-2.2-0.4-3.1c-0.3-0.9-0.7-1.7-1.2-2.4c-0.5-0.7-1.1-1.3-1.8-1.8c-0.7-0.5-1.5-0.9-2.3-1.2l-5.8-1.9
						c-0.5-0.2-1-0.3-1.5-0.5s-1-0.3-1.4-0.6c-0.4-0.2-0.8-0.5-1.1-0.9c-0.3-0.4-0.4-0.9-0.4-1.5c0-0.5,0.1-0.9,0.3-1.3
						s0.5-0.7,0.8-0.9c0.3-0.2,0.7-0.4,1.2-0.5c0.5-0.1,1-0.2,1.5-0.2c0.6,0,1.2,0.1,1.7,0.3c0.5,0.2,1,0.4,1.5,0.7
						c0.4,0.3,0.8,0.7,1.1,1.1c0.3,0.4,0.4,0.9,0.5,1.4l5.5-4.5c-0.3-0.7-0.8-1.4-1.4-2c-0.6-0.7-1.4-1.2-2.2-1.7
						c-0.9-0.5-1.9-0.9-3-1.2C213.9,145.6,212.7,145.4,211.4,145.4L211.4,145.4z"/>
				</g>
				<g>
					<path class="st29" d="M227.5,177.9v-4.8h2.9c0.3,0,0.5-0.2,0.5-0.5v-19.8c0-0.3-0.2-0.5-0.5-0.5h-2.9v-5.4H252v9.9h-5.9v-4
						c0-0.3-0.2-0.5-0.5-0.5h-8.2c-0.3,0-0.5,0.2-0.5,0.5v6.3c0,0.3,0.2,0.5,0.5,0.5h5.8v5.1h-5.8c-0.3,0-0.5,0.2-0.5,0.5v7.4
						c0,0.3,0.2,0.5,0.5,0.5h8.2c0.3,0,0.5-0.2,0.5-0.5v-5.2h5.9v10.5H227.5z"/>
					<path class="st19" d="M251.5,147.4v8.9h-4.9v-3.5c0-0.6-0.4-1-1-1h-8.2c-0.6,0-1,0.4-1,1v6.3c0,0.6,0.4,1,1,1h5.3v4.1h-5.3
						c-0.6,0-1,0.4-1,1v7.4c0,0.6,0.4,1,1,1h8.2c0.6,0,1-0.4,1-1v-4.7h4.9v9.5H228v-3.8h2.4c0.6,0,1-0.4,1-1v-19.8c0-0.6-0.4-1-1-1
						H228v-4.4H251.5 M252.5,146.4H227v6.4h3.4v19.8H227v5.8h25.4v-11.5h-6.9v5.7h-8.2v-7.4h6.3v-6.1h-6.3v-6.3h8.2v4.5h6.9V146.4
						L252.5,146.4z"/>
				</g>
			</g>
			<g>
				<g>
					<path class="st29" d="M197.5,143.5c-0.3,0-0.5-0.2-0.5-0.5v-3c0-0.3,0.2-0.5,0.5-0.5h1.5v-10h-2v0.5c0,0.3-0.2,0.5-0.5,0.5h-4
						c-0.3,0-0.5-0.2-0.5-0.5v-3.2c0-2.4-1.9-3.3-1.9-3.3c-0.2-0.1-0.3-0.3-0.3-0.6c0-0.2,0.3-0.4,0.5-0.4c1.2,0,5.9,0.8,6.9,2.9
						h11.3c0.3,0,0.5,0.2,0.5,0.5v4c0,0.3-0.2,0.5-0.5,0.5h-3c-0.3,0-0.5-0.2-0.5-0.5v-0.5h-2v10h1.5c0.3,0,0.5,0.2,0.5,0.5v3
						c0,0.3-0.2,0.5-0.5,0.5H197.5z"/>
					<path class="st19" d="M190,123.3c1.4,0,6.3,1.2,6.8,3.2H208v4h-3v-1h-3v11h2v3h-7v-3h2v-11h-3v1h-4v-3.7
						C192,124.1,190,123.3,190,123.3 M190.3,122.3c-0.5,0-0.9,0.2-1,0.7c-0.1,0.5-0.1,0.9,0.3,1.1c0.1,0,1.4,0.8,1.4,2.7v3.2
						c0,0.6,0.9,1.5,1.5,1.5h4c0.6,0,1-1,1-1h0.5v9h-0.5c-0.6,0-1.5-0.1-1.5,0.5v3c0,0.6,0.9,1.5,1.5,1.5h7c0.6,0,0.5-0.9,0.5-1.5
						v-3c0-0.6,0.1-0.5-0.5-0.5H203v-9h1.5c0,0,0.4,1,1,1h3c0.6,0,0.5-0.9,0.5-1.5v-4c0-0.6,0.1-0.5-0.5-0.5h-11
						C196.1,122.5,191.1,122.3,190.3,122.3L190.3,122.3z"/>
				</g>
				<g>
					<path class="st29" d="M218.6,142.2c-0.8,0-1.6-0.1-2.3-0.3c-0.7-0.2-1.4-0.5-2.1-0.9c-0.6-0.4-1.2-0.9-1.7-1.4
						c-0.5-0.6-1-1.2-1.3-1.9c-0.4-0.7-0.7-1.4-0.9-2.2s-0.3-1.6-0.3-2.4c0-0.8,0.1-1.7,0.3-2.4c0.2-0.8,0.5-1.5,0.9-2.2
						c0.4-0.7,0.8-1.3,1.3-1.9c0.5-0.6,1.1-1,1.7-1.4c0.6-0.4,1.3-0.7,2.1-0.9c0.7-0.2,1.5-0.3,2.3-0.3s1.6,0.1,2.3,0.3
						c0.7,0.2,1.4,0.5,2.1,0.9c0.6,0.4,1.2,0.9,1.7,1.4c0.5,0.6,1,1.2,1.3,1.9s0.7,1.4,0.9,2.2c0.2,0.8,0.3,1.6,0.3,2.4
						c0,0.8-0.1,1.7-0.3,2.4c-0.2,0.8-0.5,1.5-0.9,2.2c-0.4,0.7-0.8,1.3-1.3,1.9c-0.5,0.6-1.1,1-1.7,1.4c-0.6,0.4-1.3,0.7-2.1,0.9
						C220.2,142.1,219.4,142.2,218.6,142.2z M218.6,128.3c-0.6,0-1.1,0.1-1.5,0.4c-0.5,0.2-0.9,0.6-1.2,1c-0.3,0.4-0.6,0.9-0.8,1.5
						c-0.2,0.6-0.3,1.2-0.3,1.9c0,0.7,0.1,1.3,0.3,1.8s0.5,1.1,0.8,1.5c0.3,0.4,0.7,0.8,1.2,1c0.5,0.2,1,0.4,1.5,0.4
						c0.6,0,1.1-0.1,1.5-0.4c0.5-0.2,0.9-0.6,1.2-1c0.3-0.4,0.6-0.9,0.8-1.5c0.2-0.6,0.3-1.2,0.3-1.9c0-0.7-0.1-1.3-0.3-1.9
						c-0.2-0.6-0.5-1.1-0.8-1.5c-0.3-0.4-0.8-0.8-1.2-1C219.7,128.4,219.2,128.3,218.6,128.3z"/>
					<path class="st19" d="M218.6,124.3c0.8,0,1.5,0.1,2.2,0.3c0.7,0.2,1.3,0.5,1.9,0.9c0.6,0.4,1.1,0.8,1.6,1.4
						c0.5,0.5,0.9,1.1,1.3,1.8c0.4,0.6,0.6,1.3,0.8,2.1c0.2,0.7,0.3,1.5,0.3,2.3c0,0.8-0.1,1.6-0.3,2.3c-0.2,0.7-0.5,1.4-0.8,2.1
						c-0.4,0.6-0.8,1.2-1.3,1.8c-0.5,0.5-1,1-1.6,1.4c-0.6,0.4-1.3,0.7-1.9,0.9c-0.7,0.2-1.4,0.3-2.2,0.3s-1.5-0.1-2.2-0.3
						c-0.7-0.2-1.3-0.5-1.9-0.9c-0.6-0.4-1.1-0.8-1.6-1.4c-0.5-0.5-0.9-1.1-1.3-1.8c-0.3-0.6-0.6-1.3-0.8-2.1
						c-0.2-0.7-0.3-1.5-0.3-2.3s0.1-1.6,0.3-2.3c0.2-0.7,0.5-1.4,0.8-2.1c0.3-0.6,0.8-1.2,1.3-1.8c0.5-0.5,1-1,1.6-1.4
						c0.6-0.4,1.2-0.7,1.9-0.9C217.2,124.4,217.9,124.3,218.6,124.3 M218.6,138.2c0.6,0,1.2-0.1,1.8-0.4c0.5-0.3,1-0.7,1.4-1.1
						c0.4-0.5,0.7-1,0.9-1.7c0.2-0.6,0.3-1.3,0.3-2c0-0.7-0.1-1.4-0.3-2c-0.2-0.6-0.5-1.2-0.9-1.7c-0.4-0.5-0.8-0.9-1.4-1.1
						c-0.5-0.3-1.1-0.4-1.8-0.4s-1.2,0.1-1.7,0.4c-0.5,0.3-1,0.7-1.4,1.1c-0.4,0.5-0.7,1-0.9,1.7c-0.2,0.6-0.3,1.3-0.3,2
						c0,0.7,0.1,1.4,0.3,2c0.2,0.6,0.5,1.2,0.9,1.7c0.4,0.5,0.8,0.9,1.4,1.1C217.4,138.1,218,138.2,218.6,138.2 M218.6,123.3
						c-0.9,0-1.7,0.1-2.5,0.4c-0.8,0.2-1.5,0.6-2.2,1c-0.7,0.4-1.3,0.9-1.8,1.5c-0.5,0.6-1,1.3-1.4,2c-0.4,0.7-0.7,1.5-0.9,2.3
						c-0.2,0.8-0.3,1.7-0.3,2.6c0,0.9,0.1,1.8,0.3,2.6c0.2,0.8,0.5,1.6,0.9,2.3c0.4,0.7,0.9,1.4,1.4,2c0.5,0.6,1.2,1.1,1.8,1.5
						c0.7,0.4,1.4,0.8,2.2,1c0.8,0.2,1.6,0.4,2.5,0.4c0.9,0,1.7-0.1,2.5-0.4c0.8-0.2,1.5-0.6,2.2-1c0.7-0.4,1.3-0.9,1.8-1.5
						c0.5-0.6,1-1.2,1.4-2c0.4-0.7,0.7-1.5,0.9-2.3c0.2-0.8,0.3-1.7,0.3-2.6c0-0.9-0.1-1.8-0.3-2.6c-0.2-0.8-0.5-1.6-0.9-2.3
						c-0.4-0.7-0.9-1.4-1.4-2c-0.5-0.6-1.2-1.1-1.8-1.5c-0.7-0.4-1.4-0.8-2.2-1C220.3,123.4,219.5,123.3,218.6,123.3L218.6,123.3z
						 M218.6,137.2c-0.5,0-0.9-0.1-1.3-0.3c-0.4-0.2-0.8-0.5-1.1-0.9c-0.3-0.4-0.6-0.8-0.7-1.4c-0.2-0.5-0.3-1.1-0.3-1.7
						c0-0.6,0.1-1.2,0.3-1.7c0.2-0.5,0.4-1,0.7-1.4c0.3-0.4,0.6-0.7,1.1-0.9c0.4-0.2,0.8-0.3,1.3-0.3c0.5,0,0.9,0.1,1.3,0.3
						c0.4,0.2,0.8,0.5,1.1,0.9c0.3,0.4,0.6,0.8,0.7,1.4c0.2,0.5,0.3,1.1,0.3,1.7c0,0.6-0.1,1.2-0.3,1.7c-0.2,0.5-0.4,1-0.7,1.3
						c-0.3,0.4-0.6,0.7-1.1,0.9C219.6,137.1,219.1,137.2,218.6,137.2L218.6,137.2z"/>
				</g>
				<g>
					<path class="st29" d="M246.2,141.9c-0.3,0-0.5-0.2-0.5-0.5v-3c0-0.3,0.2-0.5,0.5-0.5h0.7v-6.6l-4.1,10.1
						c-0.1,0.2-0.3,0.3-0.5,0.3h-3.1c-0.2,0-0.4-0.1-0.5-0.3l-4.2-9.9v6.3h0.8c0.3,0,0.5,0.2,0.5,0.5v3c0,0.3-0.2,0.5-0.5,0.5H229
						c-0.3,0-0.5-0.2-0.5-0.5v-3c0-0.3,0.2-0.5,0.5-0.5h1.1v-9.7H229c-0.3,0-0.5-0.2-0.5-0.5v-3c0-0.3,0.2-0.5,0.5-0.5h6.9
						c0.2,0,0.4,0.1,0.5,0.3l4.5,10.9l4.1-10.9c0.1-0.2,0.3-0.3,0.5-0.3h7c0.3,0,0.5,0.2,0.5,0.5v3c0,0.3-0.2,0.5-0.5,0.5h-1.1v9.7
						h1c0.3,0,0.5,0.2,0.5,0.5v3c0,0.3-0.2,0.5-0.5,0.5H246.2z"/>
					<path class="st19" d="M252.5,124.6v3h-1.6v10.7h1.5v3h-6.3v-3h1.2v-9.7l-5,12.5h-3.1l-5.1-12.2v9.3h1.3v3H229v-3h1.6v-10.7H229
						v-3h6.9l5,12.1l4.6-12.1H252.5 M252.5,123.6h-7c-0.4,0-0.8,0.3-0.9,0.6l-3.7,9.7l-4-9.8c-0.2-0.4-0.5-0.6-0.9-0.6H229
						c-0.6,0-1,0.4-1,1v3c0,0.6,0.4,1,1,1h0.6v8.7H229c-0.6,0-1,0.4-1,1v3c0,0.6,0.4,1,1,1h6.3c0.6,0,1-0.4,1-1v-3c0-0.6-0.4-1-1-1
						H235V134l3.2,7.6c0.2,0.4,0.5,0.6,0.9,0.6h3.1c0.4,0,0.8-0.2,0.9-0.6l3.1-7.7v3.5h-0.2c-0.6,0-1,0.4-1,1v3c0,0.6,0.4,1,1,1h6.3
						c0.6,0,1-0.4,1-1v-3c0-0.6-0.4-1-1-1h-0.5v-8.7h0.6c0.6,0,1-0.4,1-1v-3C253.5,124.1,253,123.6,252.5,123.6L252.5,123.6z"/>
				</g>
			</g>
		</g>
		<text transform="matrix(1 0 0 1 93.8358 190.6309)" class="st14 st30 st31">communication designer</text>
		<g>
			<g>
				
					<ellipse transform="matrix(1.206315e-02 -0.9999 0.9999 1.206315e-02 69.8296 356.6899)" class="st32" cx="215.4" cy="143" rx="1.5" ry="1.5"/>
			</g>
		</g>
		<g>
			<g>
				
					<ellipse transform="matrix(0.9466 -0.3224 0.3224 0.9466 -34.3344 81.3579)" class="st32" cx="228.4" cy="144.3" rx="1.5" ry="1.5"/>
			</g>
		</g>
		<g>
			<path class="st14" d="M142.9,147.8c0-0.2,0-0.3-0.1-0.4c9.7-3.1-0.7-11-2.7-2.3c-0.1,0-0.2,0-0.3,0c-0.1,0-0.2,0-0.3,0
				c-2-7.8-12.2,3.2-2.7,3.3c0,0.2,0,0.3,0.1,0.4c-9.7,3.1,0.7,11,2.7,2.3c0.1,0,0.2,0,0.3,0c0.1,0,0.2,0,0.3,0
				C142.2,158.9,152.4,147.9,142.9,147.8z"/>
			<g>
				<path class="st15" d="M140.3,147.9C124.4,150.4,140.3,162.3,140.3,147.9C140.3,133.5,124.4,150.4,140.3,147.9
					S140.3,133.5,140.3,147.9C140.3,162.3,156.1,145.4,140.3,147.9z M140.3,147.9C136,148.6,140.3,143.7,140.3,147.9
					C140.3,152.1,136,148.6,140.3,147.9S140.3,152.1,140.3,147.9C140.3,143.7,144.6,147.2,140.3,147.9z"/>
			</g>
		</g>
		<g>
			<path class="st14" d="M166.9,174.8c0-0.2,0-0.3-0.1-0.4c9.7-3.1-0.7-11-2.7-2.3c-0.1,0-0.2,0-0.3,0c-0.1,0-0.2,0-0.3,0
				c-2-7.8-12.2,3.2-2.7,3.3c0,0.2,0,0.3,0.1,0.4c-9.7,3.1,0.7,11,2.7,2.3c0.1,0,0.2,0,0.3,0c0.1,0,0.2,0,0.3,0
				C166.2,185.9,176.4,174.9,166.9,174.8z"/>
			<g>
				<path class="st15" d="M164.2,174.9C148.4,177.4,164.2,189.3,164.2,174.9C164.2,160.5,148.4,177.4,164.2,174.9
					S164.2,160.5,164.2,174.9C164.2,189.3,180.1,172.4,164.2,174.9z M164.2,174.9C159.9,175.6,164.2,170.7,164.2,174.9
					C164.2,179.1,159.9,175.6,164.2,174.9S164.2,179.1,164.2,174.9C164.2,170.7,168.5,174.2,164.2,174.9z"/>
			</g>
		</g>
		<path class="st33" d="M190.6,123.2l-0.3-0.6c-0.8,0.2-1.6,0.5-2.3,0.9c-3.5,2.3-4,7.7-1.3,10.9C191,133.2,193.2,127,190.6,123.2z
			 M186.6,127.6c-0.1-0.4,0.1-1,0.5-1.2l0,0c0.4-0.2,0.9,0,1,0.5C187.7,127.3,187.2,127.5,186.6,127.6z"/>
		<path class="st14" d="M188.1,126.9c-0.4,0.4-0.9,0.6-1.5,0.7c-0.1-0.4,0.1-1,0.5-1.2l0,0C187.5,126.2,188,126.5,188.1,126.9z"/>
	</g>
	<path class="st34" d="M67.8,171.5c-1.7,2.2-4.1,3.4-5.4,0.9c-1.2-2.5,0-4.9,1.2-7.4c6.2-8.6,18.5-7.4,26.5-1.9"/>
	<path class="st34" d="M67.8,151.1c-1.7-2.2-4.1-3.4-5.4-0.9c-1.2,2.5,0,4.9,1.2,7.4c6.2,8.6,18.5,7.4,26.5,1.9"/>
	<path class="st34" d="M286.1,151.1c1.7-2.2,4.1-3.4,5.4-0.9s0,4.9-1.2,7.4c-6.2,8.6-18.5,7.4-26.5,1.9"/>
	<path class="st34" d="M286.1,171.5c1.7,2.2,4.1,3.4,5.4,0.9s0-4.9-1.2-7.4c-6.2-8.6-18.5-7.4-26.5-1.9"/>
	<g>
		<g>
			<rect x="105.9" y="117.5" class="st14" width="30.3" height="1.5"/>
			<rect x="105.9" y="120" class="st14" width="30.3" height="0.3"/>
		</g>
		<g>
			<rect x="136.2" y="117.5" class="st14" width="30.3" height="1.5"/>
			<rect x="136.2" y="120" class="st14" width="30.3" height="0.3"/>
		</g>
		<g>
			<rect x="166.4" y="117.5" class="st14" width="30.3" height="1.5"/>
			<rect x="166.4" y="120" class="st14" width="30.3" height="0.3"/>
		</g>
		<g>
			<rect x="196.7" y="117.5" class="st14" width="30.3" height="1.5"/>
			<rect x="196.7" y="120" class="st14" width="30.3" height="0.3"/>
		</g>
		<g>
			<rect x="227" y="117.5" class="st14" width="30.3" height="1.5"/>
			<rect x="227" y="120" class="st14" width="30.3" height="0.3"/>
		</g>
	</g>
	<g>
		<g>
			<rect x="229.2" y="197.4" class="st14" width="33.8" height="1.5"/>
			<rect x="229.2" y="196.1" class="st14" width="33.8" height="0.3"/>
		</g>
		<g>
			<rect x="195.3" y="197.4" class="st14" width="33.8" height="1.5"/>
			<rect x="195.3" y="196.1" class="st14" width="33.8" height="0.3"/>
		</g>
		<g>
			<rect x="161.5" y="197.4" class="st14" width="33.8" height="1.5"/>
			<rect x="161.5" y="196.1" class="st14" width="33.8" height="0.3"/>
		</g>
		<g>
			<rect x="127.7" y="197.4" class="st14" width="33.8" height="1.5"/>
			<rect x="127.7" y="196.1" class="st14" width="33.8" height="0.3"/>
		</g>
		<g>
			<rect x="93.8" y="197.4" class="st14" width="33.8" height="1.5"/>
			<rect x="93.8" y="196.1" class="st14" width="33.8" height="0.3"/>
		</g>
	</g>
	<path class="st26" d="M197,80.5c-9-5.3-20-5.4-29.1-0.4L24.5,158.8c-3.6,2-3.4,7.2,0.3,8.9L171.3,236c7.1,3.3,15.4,3.2,22.4-0.3
		l136.4-68c3.6-1.8,3.7-6.8,0.3-8.8L197,80.5z M193.7,230.1c-7,3.5-15.2,3.6-22.3,0.3L26.5,163.6l141.3-77.8
		c9.1-5,20.2-4.8,29.2,0.5l130.7,77.4L193.7,230.1z"/>
	<path class="st35" d="M215.9,144.3c0,0,0.5,4.4,4.5,6.5c0,0,2-5.2,7-6"/>
	<path class="st15" d="M217.2,143c0,1-0.8,1.7-1.8,1.7c-1,0-1.7-0.8-1.7-1.8c0-1,0.8-1.7,1.8-1.7C216.4,141.3,217.2,142.1,217.2,143
		C217.1,144,217.2,142.1,217.2,143z"/>
	<path class="st15" d="M229,146c-0.9,0.3-1.9-0.2-2.2-1.1c-0.3-0.9,0.2-1.9,1.1-2.2c0.9-0.3,1.9,0.2,2.2,1.1
		C230.4,144.7,229.9,145.6,229,146C228.1,146.3,229.9,145.6,229,146z"/>
	<path class="st36" d="M193.7,230.1c-7,3.5-15.2,3.6-22.3,0.3L26.5,163.6l141.3-77.8c9.1-5,20.2-4.8,29.2,0.5l130.7,77.4
		L193.7,230.1z"/>
	<path class="st37" d="M251.2,198.2l-58.9,29.2c-3.1,1.6-6.6,2.4-10.1,2.4c-3.3,0-6.5-0.7-9.5-2.1L109,198.3"/>
	<path class="st37" d="M115.3,118.1l54.1-29.8c3.9-2.1,8.3-3.3,12.8-3.3c4.7,0,9.4,1.3,13.5,3.7l49.8,29.5"/>
</g>
</svg>
